0
SECTION
2
HEADER
9
$INSUNITS
70
4
9
$ACADVER
1
AC1014
9
$HANDSEED
5
FFFF
0
ENDSEC
0
SECTION
2
TABLES
0
TABLE
2
VPORT
5
8
100
AcDbSymbolTable
0
ENDTAB
0
TABLE
2
LTYPE
5
5
100
AcDbSymbolTable
0
LTYPE
5
14
100
AcDbSymbolTableRecord
100
AcDbLinetypeTableRecord
2
BYBLOCK
70
0
0
LTYPE
5
15
100
AcDbSymbolTableRecord
100
AcDbLinetypeTableRecord
2
BYLAYER
70
0
0
ENDTAB
0
TABLE
2
LAYER
5
2
100
AcDbSymbolTable
70
2
0
LAYER
5
50
100
AcDbSymbolTableRecord
100
AcDbLayerTableRecord
2
0
70
0
6
CONTINUOUS
0
ENDTAB
0
TABLE
2
STYLE
5
3
100
AcDbSymbolTable
70
1
0
STYLE
5
11
100
AcDbSymbolTableRecord
100
AcDbTextStyleTableRecord
2
STANDARD
70
0
0
ENDTAB
0
TABLE
2
VIEW
5
6
100
AcDbSymbolTable
70
0
0
ENDTAB
0
TABLE
2
UCS
5
7
100
AcDbSymbolTable
70
0
0
ENDTAB
0
TABLE
2
APPID
5
9
100
AcDbSymbolTable
70
2
0
APPID
5
12
100
AcDbSymbolTableRecord
100
AcDbRegAppTableRecord
2
ACAD
70
0
0
ENDTAB
0
TABLE
2
DIMSTYLE
5
A
100
AcDbSymbolTable
70
1
0
ENDTAB
0
TABLE
2
BLOCK_RECORD
5
1
100
AcDbSymbolTable
70
1
0
BLOCK_RECORD
5
1F
100
AcDbSymbolTableRecord
100
AcDbBlockTableRecord
2
*MODEL_SPACE
0
BLOCK_RECORD
5
1B
100
AcDbSymbolTableRecord
100
AcDbBlockTableRecord
2
*PAPER_SPACE
0
ENDTAB
0
ENDSEC
0
SECTION
2
BLOCKS
0
BLOCK
5
20
100
AcDbEntity
100
AcDbBlockBegin
2
*MODEL_SPACE
0
ENDBLK
5
21
100
AcDbEntity
100
AcDbBlockEnd
0
BLOCK
5
1C
100
AcDbEntity
100
AcDbBlockBegin
2
*PAPER_SPACE
0
ENDBLK
5
1D
100
AcDbEntity
100
AcDbBlockEnd
0
ENDSEC
0
SECTION
2
ENTITIES
0
LWPOLYLINE
5
100
100
AcDbEntity
8
OUTER_PROFILES
100
AcDbPolyline
90
4
70
1
43
0.0
10
428.5
20
115.92534464488497
10
-7.1054273576010019e-14
20
115.92534464488497
10
0
20
-1.7763568394002505e-14
10
428.49999999999994
20
-3.5527136788005009e-14
0
LWPOLYLINE
5
101
100
AcDbEntity
8
INTERIOR_PROFILES
100
AcDbPolyline
90
4
70
1
43
0.0
10
274.3925249157025
20
78.188763065489013
42
1.0000001147002366
10
277.63049322006719
20
73.546440235273991
42
-0.31429505785262263
10
299.36950769322999
20
73.546439598257976
42
0.99999978509242016
10
302.60747570114279
20
78.188762635245666
42
0.31429503497228417
0
ARC
5
102
100
AcDbEntity
8
INTERIOR_PROFILES
100
AcDbCircle
10
-265.07987345612366
20
29.111965699053812
30
0
40
2.8399999999999932
210
-0
220
0
230
-1
100
AcDbArc
50
-50.931357719490869
51
129.06865145738169
0
ARC
5
103
100
AcDbEntity
8
INTERIOR_PROFILES
100
AcDbCircle
10
-288.4999999999996
20
57.962672322442295
30
0
40
39.999999999999993
210
0
220
-0
230
-1
100
AcDbArc
50
230.93134334968053
51
309.06864208096965
0
ARC
5
104
100
AcDbEntity
8
INTERIOR_PROFILES
100
AcDbCircle
10
-311.92012654387531
20
29.111965699053801
30
0
40
2.8399999999999919
210
0
220
0
230
-1
100
AcDbArc
50
50.931346788569151
51
230.93115251737612
0
ARC
5
105
100
AcDbEntity
8
INTERIOR_PROFILES
100
AcDbCircle
10
288.49999999999955
20
57.962672322442266
30
0
40
34.319999999999922
210
0
220
0
230
1
100
AcDbArc
50
230.93135871144599
51
309.06864114340522
0
ARC
5
106
100
AcDbEntity
8
INTERIOR_PROFILES
100
AcDbCircle
10
139.99999999999997
20
57.962672322442479
30
0
40
19
210
0
220
0
230
1
100
AcDbArc
50
145.12662360645248
51
214.87337640605119
0
ARC
5
107
100
AcDbEntity
8
INTERIOR_PROFILES
100
AcDbCircle
10
-122.08207860905947
20
70.450013633870014
30
0
40
2.8400000000002179
210
0
220
0
230
-1
100
AcDbArc
50
34.873376396654564
51
214.87337639769319
0
ARC
5
108
100
AcDbEntity
8
INTERIOR_PROFILES
100
AcDbCircle
10
-139.99999999999997
20
57.962672322442479
30
0
40
24.680000000000422
210
-0
220
0
230
-1
100
AcDbArc
50
-34.873376391549321
51
34.87337639438212
0
ARC
5
109
100
AcDbEntity
8
INTERIOR_PROFILES
100
AcDbCircle
10
-122.08207860907009
20
45.475331010999668
30
0
40
2.8400000000002059
210
0
220
0
230
-1
100
AcDbArc
50
145.12662368558298
51
325.12662362833817
0
ARC
5
110
100
AcDbEntity
8
INTERIOR_PROFILES
100
AcDbCircle
10
-292.32999999999998
20
87.202904879656955
30
0
40
2.8300000000000103
210
-0
220
0
230
-1
100
AcDbArc
50
-82.537657833045927
51
97.462342115543251
0
ARC
5
111
100
AcDbEntity
8
INTERIOR_PROFILES
100
AcDbCircle
10
288.49999999999955
20
57.962672322442273
30
0
40
26.660000000000011
210
0
220
-0
230
1
100
AcDbArc
50
7.4623243403966226
51
82.537657836270682
0
ARC
5
112
100
AcDbEntity
8
INTERIOR_PROFILES
100
AcDbCircle
10
-317.74023255721431
20
61.792672322442321
30
0
40
2.8299999999999894
210
0
220
0
230
-1
100
AcDbArc
50
172.53765787453142
51
352.53748992844328
0
ARC
5
113
100
AcDbEntity
8
INTERIOR_PROFILES
100
AcDbCircle
10
-288.49999999999955
20
57.962672322442266
30
0
40
32.320000000000014
210
0
220
0
230
-1
100
AcDbArc
50
97.462342159792414
51
172.5376578393392
0
ARC
5
114
100
AcDbEntity
8
INTERIOR_PROFILES
100
AcDbCircle
10
-288.4999999999996
20
57.962672322442295
30
0
40
40.000000000000007
210
0
220
0
230
-1
100
AcDbArc
50
140.93135791911047
51
219.06864208483665
0
ARC
5
115
100
AcDbEntity
8
INTERIOR_PROFILES
100
AcDbCircle
10
-317.35070662338819
20
81.38279886631814
30
0
40
2.8400000000000167
210
-0
220
0
230
-1
100
AcDbArc
50
-39.068642174453359
51
140.93135772061601
0
ARC
5
116
100
AcDbEntity
8
INTERIOR_PROFILES
100
AcDbCircle
10
288.49999999999955
20
57.962672322442266
30
0
40
34.320000000000007
210
0
220
0
230
1
100
AcDbArc
50
-39.068641228757308
51
39.068642056721501
0
ARC
5
117
100
AcDbEntity
8
INTERIOR_PROFILES
100
AcDbCircle
10
-317.35070662338779
20
34.542545778566172
30
0
40
2.8400000000001646
210
0
220
0
230
-1
100
AcDbArc
50
-140.93135766503173
51
39.068652180001237
0
ARC
5
118
100
AcDbEntity
8
INTERIOR_PROFILES
100
AcDbCircle
10
-311.92012654387565
20
86.813378945830692
30
0
40
2.8399999999999674
210
0
220
0
230
-1
100
AcDbArc
50
129.06864169397139
51
309.0686420602226
0
ARC
5
119
100
AcDbEntity
8
INTERIOR_PROFILES
100
AcDbCircle
10
-288.4999999999996
20
57.962672322442295
30
0
40
40
210
0
220
0
230
-1
100
AcDbArc
50
50.931359211846591
51
129.06864203932562
0
ARC
5
120
100
AcDbEntity
8
INTERIOR_PROFILES
100
AcDbCircle
10
-265.07987345612338
20
86.813378945831175
30
0
40
2.8400000000000136
210
0
220
-0
230
-1
100
AcDbArc
50
-129.06864229086864
51
50.931375928169047
0
ARC
5
121
100
AcDbEntity
8
INTERIOR_PROFILES
100
AcDbCircle
10
288.49999999999955
20
57.962672322442266
30
0
40
34.320000000000029
210
0
220
-0
230
1
100
AcDbArc
50
50.931357933825304
51
129.06864204708816
0
ARC
5
122
100
AcDbEntity
8
INTERIOR_PROFILES
100
AcDbCircle
10
288.49999999999955
20
57.962672322442273
30
0
40
26.66
210
0
220
0
230
1
100
AcDbArc
50
97.462304840343549
51
172.53765783508553
0
ARC
5
123
100
AcDbEntity
8
INTERIOR_PROFILES
100
AcDbCircle
10
-284.66999999999996
20
87.202904879657069
30
0
40
2.8299999999999876
210
0
220
0
230
-1
100
AcDbArc
50
82.537657831095927
51
262.53730622830551
0
ARC
5
124
100
AcDbEntity
8
INTERIOR_PROFILES
100
AcDbCircle
10
-288.49999999999955
20
57.962672322442266
30
0
40
32.319999999999993
210
0
220
0
230
-1
100
AcDbArc
50
7.4623407669233526
51
82.53765783553672
0
ARC
5
125
100
AcDbEntity
8
INTERIOR_PROFILES
100
AcDbCircle
10
-259.25976744278455
20
61.792672322442272
30
0
40
2.8300000000002745
210
0
220
-0
230
-1
100
AcDbArc
50
-172.53765784422063
51
7.4623262082996531
0
ARC
5
126
100
AcDbEntity
8
INTERIOR_PROFILES
100
AcDbCircle
10
-300.98849119835177
20
40.057743180201051
30
0
40
2.830000000000009
210
0
220
0
230
-1
100
AcDbArc
50
55.10465155873073
51
235.10465321687138
0
ARC
5
127
100
AcDbEntity
8
INTERIOR_PROFILES
100
AcDbCircle
10
288.4999999999996
20
57.962672322442259
30
0
40
19.000000000000011
210
0
220
0
230
1
100
AcDbArc
50
235.10465043280777
51
304.89534973486877
0
ARC
5
128
100
AcDbEntity
8
INTERIOR_PROFILES
100
AcDbCircle
10
-276.01150880164744
20
40.05774318020098
30
0
40
2.8299999999999987
210
-0
220
0
230
-1
100
AcDbArc
50
-55.104650430254594
51
124.89534956701227
0
ARC
5
129
100
AcDbEntity
8
INTERIOR_PROFILES
100
AcDbCircle
10
-288.49999999999955
20
57.962672322442288
30
0
40
24.660000000000029
210
0
220
-0
230
-1
100
AcDbArc
50
235.10465075232949
51
304.89534956746439
0
LWPOLYLINE
5
130
100
AcDbEntity
8
INTERIOR_PROFILES
100
AcDbPolyline
90
4
70
1
43
0.0
10
272.91623810769352
20
68.832187734123735
42
0.99999798221478553
10
268.27391014133934
20
72.070148674696142
42
0.31429503920693364
10
268.27390901959086
20
43.855197578453669
42
1.0000001950003741
10
272.9162320645014
20
47.093165574966946
42
-0.31429519332435951
0
LWPOLYLINE
5
131
100
AcDbEntity
8
INTERIOR_PROFILES
100
AcDbPolyline
90
4
70
1
43
0.0
10
154.11112830955756
20
78.210597100829617
42
0.3140841784508504
10
125.88883553633066
20
78.210571904320602
42
0.99999747346528123
10
129.13647006723704
20
73.550607317173615
42
-0.31408436899795805
10
150.86352961270376
20
73.550607540055651
42
1.0000053005824616
0
ARC
5
132
100
AcDbEntity
8
INTERIOR_PROFILES
100
AcDbCircle
10
139.99999999999997
20
57.962672322442479
30
0
40
19.000000000000007
210
0
220
0
230
1
100
AcDbArc
50
235.12669697328826
51
304.87337640517188
0
ARC
5
133
100
AcDbEntity
8
INTERIOR_PROFILES
100
AcDbCircle
10
-127.51265868857246
20
40.044750931501945
30
0
40
2.8400000000002019
210
-0
220
0
230
-1
100
AcDbArc
50
-55.125885162304137
51
124.87386723215731
0
ARC
5
134
100
AcDbEntity
8
INTERIOR_PROFILES
100
AcDbCircle
10
-139.99999999999997
20
57.962672322442479
30
0
40
24.680000000000426
210
0
220
0
230
-1
100
AcDbArc
50
235.12662373108836
51
304.87346136895889
0
ARC
5
135
100
AcDbEntity
8
INTERIOR_PROFILES
100
AcDbCircle
10
-152.48734131142751
20
40.044750931501937
30
0
40
2.8400000000001997
210
0
220
0
230
-1
100
AcDbArc
50
55.126623680075824
51
235.12662469370105
0
LWPOLYLINE
5
136
100
AcDbEntity
8
INTERIOR_PROFILES
100
AcDbPolyline
90
4
70
1
43
0.0
10
166.45433952770054
20
61.425376490165078
42
0.99999999999999989
10
172.06646702860127
20
62.159968154719905
42
0.33987030613844876
10
144.19729583205137
20
90.029139351073354
42
0.99999929137208754
10
143.46270019103696
20
84.417012370665503
42
-0.33987034807701355
0
LWPOLYLINE
5
137
100
AcDbEntity
8
INTERIOR_PROFILES
100
AcDbPolyline
90
4
70
1
43
0.0
10
166.65482770638963
20
36.311904208041909
42
1.0000014045885823
10
171.04813358868404
20
32.743366212653768
42
0.35496085959918733
10
171.04813300645014
20
83.18197914903476
42
1.000001277139867
10
166.65482783381981
20
79.613440279960415
42
-0.35496072089054909
0
ARC
5
138
100
AcDbEntity
8
INTERIOR_PROFILES
100
AcDbCircle
10
-139.99999999999997
20
57.962672322442479
30
0
40
40
210
0
220
0
230
-1
100
AcDbArc
50
50.914260515153167
51
129.08574075346957
0
ARC
5
139
100
AcDbEntity
8
INTERIOR_PROFILES
100
AcDbCircle
10
-116.56495980251393
20
86.814150463817555
30
0
40
2.829999999999993
210
0
220
0
230
-1
100
AcDbArc
50
-129.08574075395853
51
50.914277175405225
0
ARC
5
140
100
AcDbEntity
8
INTERIOR_PROFILES
100
AcDbCircle
10
139.99999999999997
20
57.962672322442479
30
0
40
34.340000000000401
210
0
220
-0
230
1
100
AcDbArc
50
50.914259269097151
51
129.08574075324887
0
ARC
5
141
100
AcDbEntity
8
INTERIOR_PROFILES
100
AcDbCircle
10
-163.4350401974861
20
86.814150463817271
30
0
40
2.8299999999997718
210
0
220
0
230
-1
100
AcDbArc
50
129.08574075565301
51
309.08574102511665
0
ARC
5
142
100
AcDbEntity
8
INTERIOR_PROFILES
100
AcDbCircle
10
-136.17000000000007
20
87.223075600593418
30
0
40
2.8300000000000032
210
0
220
0
230
-1
100
AcDbArc
50
82.542744098405905
51
262.54266486002524
0
ARC
5
143
100
AcDbEntity
8
INTERIOR_PROFILES
100
AcDbCircle
10
-139.99999999999997
20
57.962672322442479
30
0
40
32.340000000000416
210
0
220
0
230
-1
100
AcDbArc
50
7.4572558937985374
51
82.54274409926559
0
ARC
5
144
100
AcDbEntity
8
INTERIOR_PROFILES
100
AcDbCircle
10
-110.7395967218491
20
61.792672322442364
30
0
40
2.8299999999999743
210
0
220
-0
230
-1
100
AcDbArc
50
-172.54274419877336
51
7.4572558223343863
0
ARC
5
145
100
AcDbEntity
8
INTERIOR_PROFILES
100
AcDbCircle
10
139.99999999999997
20
57.962672322442479
30
0
40
26.680000000003435
210
0
220
0
230
1
100
AcDbArc
50
97.45724749558137
51
172.54274408880184
0
ARC
5
146
100
AcDbEntity
8
INTERIOR_PROFILES
100
AcDbCircle
10
-139.99999999999997
20
57.962672322442479
30
0
40
32.340000000000416
210
-0
220
0
230
-1
100
AcDbArc
50
277.45725589384983
51
352.54274475854709
0
ARC
5
147
100
AcDbEntity
8
INTERIOR_PROFILES
100
AcDbCircle
10
-136.17000000000002
20
28.702269044291562
30
0
40
2.8299999999999876
210
0
220
0
230
-1
100
AcDbArc
50
97.457255903617764
51
277.45725582291931
0
ARC
5
148
100
AcDbEntity
8
INTERIOR_PROFILES
100
AcDbCircle
10
139.99999999999997
20
57.962672322442479
30
0
40
26.680000000000415
210
0
220
0
230
1
100
AcDbArc
50
187.4572315460174
51
262.54274409966251
0
ARC
5
149
100
AcDbEntity
8
INTERIOR_PROFILES
100
AcDbCircle
10
-110.73959672184901
20
54.132672322442481
30
0
40
2.8299999999999548
210
-0
220
0
230
-1
100
AcDbArc
50
-7.4572483676133476
51
172.54251449452303
0
ARC
5
150
100
AcDbEntity
8
INTERIOR_PROFILES
100
AcDbCircle
10
-139.99999999999997
20
57.962672322442479
30
0
40
40
210
-0
220
0
230
-1
100
AcDbArc
50
-39.085740753273122
51
39.085740915164763
0
ARC
5
151
100
AcDbEntity
8
INTERIOR_PROFILES
100
AcDbCircle
10
-111.14852185862506
20
34.527632124956597
30
0
40
2.8299999999998016
210
0
220
0
230
-1
100
AcDbArc
50
140.91425902271629
51
320.91425924711774
0
ARC
5
152
100
AcDbEntity
8
INTERIOR_PROFILES
100
AcDbCircle
10
139.99999999999997
20
57.962672322442479
30
0
40
34.340000000000401
210
0
220
0
230
1
100
AcDbArc
50
140.91428231517699
51
219.08574073484434
0
ARC
5
153
100
AcDbEntity
8
INTERIOR_PROFILES
100
AcDbCircle
10
-111.14852185862523
20
81.397712519928604
30
0
40
2.8299999999998002
210
0
220
0
230
-1
100
AcDbArc
50
39.085743041097253
51
219.08602067260185
0
LWPOLYLINE
5
154
100
AcDbEntity
8
INTERIOR_PROFILES
100
AcDbPolyline
90
4
70
1
43
0.0
10
86.102237604954951
20
32.731027657146534
42
0.35511146608711103
10
86.05128782265794
20
83.18622350782158
42
0.99933046941292825
10
81.656169091947746
20
79.611788917386008
42
-0.35477347648763741
10
81.66788380128088
20
36.327987819346561
42
1.0000639098753705
0
LWPOLYLINE
5
155
100
AcDbEntity
8
INTERIOR_PROFILES
100
AcDbPolyline
90
4
70
1
43
0.0
10
39.470978153233716
20
47.030078023739541
42
-0.31441853152304627
10
39.437195431348393
20
68.776070256479784
42
1.0002036745110026
10
34.733097056371484
20
72.046529928706775
42
0.31492821331419713
10
34.814647459066791
20
43.762181387340675
42
0.99887141674899438
0
LWPOLYLINE
5
156
100
AcDbEntity
8
INTERIOR_PROFILES
100
AcDbPolyline
90
4
70
1
43
0.0
10
81.454339581803737
20
54.499968568060865
42
-0.33987053140722251
10
58.462683213324951
20
31.508330051865428
42
1.0000026343606199
10
59.197331571030396
20
25.896209971836068
42
0.3398699507914334
10
87.066466358381618
20
53.765371369866827
42
1.0000008387120474
0
ARC
5
157
100
AcDbEntity
8
INTERIOR_PROFILES
100
AcDbCircle
10
139.99999999999997
20
57.962672322442479
30
0
40
26.680000000000422
210
0
220
0
230
1
100
AcDbArc
50
277.45725590146571
51
352.54274408896953
0
ARC
5
158
100
AcDbEntity
8
INTERIOR_PROFILES
100
AcDbCircle
10
-143.82999999999998
20
28.702269044291569
30
0
40
2.8299999999999965
210
0
220
0
230
-1
100
AcDbArc
50
-97.457781533865258
51
82.54274410701737
0
ARC
5
159
100
AcDbEntity
8
INTERIOR_PROFILES
100
AcDbCircle
10
-139.99999999999997
20
57.962672322442479
30
0
40
32.340000000000394
210
0
220
-0
230
-1
100
AcDbArc
50
187.45725589819008
51
262.54269810237832
0
ARC
5
160
100
AcDbEntity
8
INTERIOR_PROFILES
100
AcDbCircle
10
-169.2604032781509
20
54.132672322442488
30
0
40
2.8299999999999956
210
0
220
0
230
-1
100
AcDbArc
50
7.457255802809585
51
187.45725587251715
0
ARC
5
161
100
AcDbEntity
8
INTERIOR_PROFILES
100
AcDbCircle
10
-54.999999999999929
20
57.962672322441982
30
0
40
32.339999999999939
210
-0
220
0
230
-1
100
AcDbArc
50
277.45737058941171
51
352.54274409800951
0
ARC
5
162
100
AcDbEntity
8
INTERIOR_PROFILES
100
AcDbCircle
10
-51.170000000003348
20
28.702269044292112
30
0
40
2.8299999999990169
210
0
220
0
230
-1
100
AcDbArc
50
97.457255889458409
51
277.45856651360981
0
ARC
5
163
100
AcDbEntity
8
INTERIOR_PROFILES
100
AcDbCircle
10
54.999999999999929
20
57.962672322441982
30
0
40
26.679999999999939
210
0
220
0
230
1
100
AcDbArc
50
187.45725583512944
51
262.54274409816753
0
ARC
5
164
100
AcDbEntity
8
INTERIOR_PROFILES
100
AcDbCircle
10
-25.739596721849622
20
54.132672322442005
30
0
40
2.830000000000124
210
-0
220
0
230
-1
100
AcDbArc
50
-7.4572559159452005
51
172.54274348162772
0
LWPOLYLINE
5
165
100
AcDbEntity
8
INTERIOR_PROFILES
100
AcDbPolyline
90
4
70
1
43
0.0
10
65.859972371397959
20
73.542287719977594
42
0.99886783271659163
10
69.106241131339004
20
78.214002183577392
42
0.31364733209389467
10
40.916169630417698
20
78.229594193333057
42
1.0002098007852918
10
44.186603645840037
20
73.525477989781493
42
-0.31313926349787208
0
LWPOLYLINE
5
166
100
AcDbEntity
8
INTERIOR_PROFILES
100
AcDbPolyline
90
4
70
1
43
0.0
10
155.58793527605604
20
47.099142793348946
42
0.99999999999999989
10
160.24790750582497
20
43.851519228680914
42
0.31408436092990705
10
160.24790747920582
20
72.073825454399511
42
1.000000123329061
10
155.58793570320151
20
68.826201238630574
42
-0.3140843496104444
0
ARC
5
167
100
AcDbEntity
8
INTERIOR_PROFILES
100
AcDbCircle
10
-139.99999999999997
20
57.962672322442479
30
0
40
40
210
0
220
-0
230
-1
100
AcDbArc
50
230.91425903218553
51
309.08574076855564
0
ARC
5
168
100
AcDbEntity
8
INTERIOR_PROFILES
100
AcDbCircle
10
-163.43504019748616
20
29.111194181067745
30
0
40
2.8299999999998011
210
0
220
0
230
-1
100
AcDbArc
50
50.914259140654167
51
230.91425621473854
0
ARC
5
169
100
AcDbEntity
8
INTERIOR_PROFILES
100
AcDbCircle
10
139.99999999999997
20
57.962672322442479
30
0
40
34.340000000000401
210
0
220
0
230
1
100
AcDbArc
50
230.91425926515899
51
309.08574074456436
0
ARC
5
170
100
AcDbEntity
8
INTERIOR_PROFILES
100
AcDbCircle
10
-116.5649598025139
20
29.11119418106771
30
0
40
2.8299999999997856
210
-0
220
0
230
-1
100
AcDbArc
50
-50.914259031115201
51
129.0857409773291
0
LWPOLYLINE
5
171
100
AcDbEntity
8
INTERIOR_PROFILES
100
AcDbPolyline
90
4
70
1
43
0.0
10
28.54566093098256
20
61.425379994403087
42
-0.33987026944421861
10
51.537295854605262
20
84.417011853063798
42
0.99999442770343416
10
50.802735417929988
20
90.02914344147996
42
0.33987057799575471
10
22.933532970186192
20
62.159968145363038
42
1.0000006227368174
0
LWPOLYLINE
5
172
100
AcDbEntity
8
INTERIOR_PROFILES
100
AcDbPolyline
90
4
70
1
43
0.0
10
28.358266025800884
20
79.629550520465244
42
0.99993125183366371
10
24.005984936111528
20
83.169622785874182
42
0.35481033826060304
10
23.955081394258269
20
32.747639975374994
42
1.0006735016021118
10
28.34653985670446
20
36.310220673962831
42
-0.3551486927613457
0
LWPOLYLINE
5
173
100
AcDbEntity
8
INTERIOR_PROFILES
100
AcDbPolyline
90
4
70
1
43
0.0
10
58.462704168005182
20
84.417011850105027
42
-0.33987030632872289
10
81.45433952993136
20
61.425376473112465
42
0.99999976450981543
10
87.066467199357874
20
62.159966850170257
42
0.33987032672461504
10
59.197294769238141
20
90.0291394901882
42
0.9999998106321123
0
LWPOLYLINE
5
174
100
AcDbEntity
8
INTERIOR_PROFILES
100
AcDbPolyline
90
4
70
1
43
0.0
10
75.244537256819115
20
72.078660111373878
42
1.0011300096461426
10
70.596174606310001
20
68.829667599546696
42
-0.31502966073103911
10
70.613046560486637
20
47.049013034639231
42
0.99979681334698989
10
75.228888055490444
20
43.824267602020093
42
0.3145198437260851
0
LWPOLYLINE
5
175
100
AcDbEntity
8
INTERIOR_PROFILES
100
AcDbPolyline
90
4
70
1
43
0.0
10
80.299039264999323
20
88.939344464514221
42
0.3555721640714723
10
29.793047846591769
20
88.956686011540725
42
0.99993887948382087
10
33.333156693841232
20
84.6044346730516
42
-0.35591027664395253
10
76.724491094941897
20
84.557447874523803
42
1.0006696779757933
0
LWPOLYLINE
5
176
100
AcDbEntity
8
INTERIOR_PROFILES
100
AcDbPolyline
90
4
70
1
43
0.0
10
65.91365853150252
20
42.349625233804701
42
-0.3150297701538291
10
44.13299777150133
20
42.366502586503685
42
1.0011286140179469
10
40.884012688252739
20
37.718134732894782
42
0.31451967195680908
10
69.138392549569815
20
37.733775760490609
42
0.99979961373013371
0
LWPOLYLINE
5
177
100
AcDbEntity
8
INTERIOR_PROFILES
100
AcDbPolyline
90
4
70
1
43
0.0
10
80.231618421088967
20
26.860413432584025
42
1.0000698365385379
10
76.634684466641261
20
31.294788491345393
42
-0.35477379835524425
10
33.350852885944192
20
31.306528016592445
42
0.99931934547841461
10
29.776430402953622
20
26.911399494022913
42
0.35511139538337089
0
CIRCLE
5
178
100
AcDbEntity
8
INTERIOR_PROFILES
100
AcDbCircle
10
-231.62499999999997
20
22.03267232244248
30
0
40
1.6999999999999815
210
0
220
0
230
-1
0
LWPOLYLINE
5
179
100
AcDbEntity
8
INTERIOR_PROFILES
100
AcDbPolyline
90
4
70
1
43
0.0
10
199.24999999999997
20
26.90767232244248
10
194.49999999999994
20
26.90767232244248
10
194.49999999999994
20
39.15767232244248
10
199.24999999999997
20
39.15767232244248
0
LWPOLYLINE
5
180
100
AcDbEntity
8
INTERIOR_PROFILES
100
AcDbPolyline
90
4
70
1
43
0.0
10
229.24999999999997
20
39.15767232244248
10
233.99999999999994
20
39.157672322442487
10
234
20
26.90767232244248
10
229.24999999999997
20
26.907672322442487
0
CIRCLE
5
181
100
AcDbEntity
8
INTERIOR_PROFILES
100
AcDbCircle
10
-196.87499999999997
20
44.03267232244248
30
0
40
1.6999999999999815
210
0
220
0
230
-1
0
CIRCLE
5
182
100
AcDbEntity
8
INTERIOR_PROFILES
100
AcDbCircle
10
-409.25
20
22.212672322443563
30
0
40
3.0000000000000426
210
0
220
0
230
-1
0
CIRCLE
5
183
100
AcDbEntity
8
INTERIOR_PROFILES
100
AcDbCircle
10
-104.24999999999999
20
22.212672322442106
30
0
40
3.0000000000000071
210
0
220
0
230
-1
0
CIRCLE
5
184
100
AcDbEntity
8
INTERIOR_PROFILES
100
AcDbCircle
10
-196.87499999999997
20
22.032672322442473
30
0
40
1.6999999999999815
210
0
220
0
230
-1
0
CIRCLE
5
185
100
AcDbEntity
8
INTERIOR_PROFILES
100
AcDbCircle
10
-19.249999999999972
20
93.712672322442216
30
0
40
3.0000000000000071
210
0
220
0
230
-1
0
CIRCLE
5
186
100
AcDbEntity
8
INTERIOR_PROFILES
100
AcDbCircle
10
-214.24999999999997
20
33.03267232244248
30
0
40
8.125
210
0
220
0
230
-1
0
CIRCLE
5
187
100
AcDbEntity
8
INTERIOR_PROFILES
100
AcDbCircle
10
-412.3649999999999
20
5.3649999999999665
30
0
40
1.8000000000000005
210
0
220
0
230
-1
0
CIRCLE
5
188
100
AcDbEntity
8
INTERIOR_PROFILES
100
AcDbCircle
10
-252.75
20
22.212672322442295
30
0
40
3.0000000000000071
210
0
220
0
230
-1
0
CIRCLE
5
189
100
AcDbEntity
8
INTERIOR_PROFILES
100
AcDbCircle
10
-175.74999999999994
20
22.212672322442106
30
0
40
3.0000000000000071
210
0
220
0
230
-1
0
CIRCLE
5
190
100
AcDbEntity
8
INTERIOR_PROFILES
100
AcDbCircle
10
-421.75
20
31.502672322442464
30
0
40
2.0000000000000284
210
0
220
0
230
-1
0
CIRCLE
5
191
100
AcDbEntity
8
INTERIOR_PROFILES
100
AcDbCircle
10
-252.75
20
93.712672322442302
30
0
40
3.0000000000000071
210
0
220
0
230
-1
0
CIRCLE
5
192
100
AcDbEntity
8
INTERIOR_PROFILES
100
AcDbCircle
10
-421.75
20
89.982672322442511
30
0
40
2.0000000000000284
210
0
220
0
230
-1
0
CIRCLE
5
193
100
AcDbEntity
8
INTERIOR_PROFILES
100
AcDbCircle
10
-6.7499999999999361
20
31.502672322442482
30
0
40
1.9999999999999929
210
0
220
0
230
-1
0
CIRCLE
5
194
100
AcDbEntity
8
INTERIOR_PROFILES
100
AcDbCircle
10
-322.31999999999994
20
5.2649999999999686
30
0
40
1.8000000000000005
210
0
220
0
230
-1
0
CIRCLE
5
195
100
AcDbEntity
8
INTERIOR_PROFILES
100
AcDbCircle
10
-337.75
20
93.712672322443566
30
0
40
3.0000000000000426
210
0
220
0
230
-1
0
CIRCLE
5
196
100
AcDbEntity
8
INTERIOR_PROFILES
100
AcDbCircle
10
-231.62499999999997
20
44.03267232244248
30
0
40
1.6999999999999815
210
0
220
0
230
-1
0
CIRCLE
5
197
100
AcDbEntity
8
INTERIOR_PROFILES
100
AcDbCircle
10
-90.749999999999972
20
93.712672322442245
30
0
40
3.0000000000000071
210
0
220
0
230
-1
0
CIRCLE
5
198
100
AcDbEntity
8
INTERIOR_PROFILES
100
AcDbCircle
10
-337.75
20
22.212672322443552
30
0
40
2.9999999999999716
210
0
220
0
230
-1
0
CIRCLE
5
199
100
AcDbEntity
8
INTERIOR_PROFILES
100
AcDbCircle
10
-409.25
20
93.712672322443566
30
0
40
3.0000000000000426
210
0
220
0
230
-1
0
CIRCLE
5
200
100
AcDbEntity
8
INTERIOR_PROFILES
100
AcDbCircle
10
-19.249999999999972
20
22.212672322442213
30
0
40
3.0000000000000071
210
0
220
0
230
-1
0
CIRCLE
5
201
100
AcDbEntity
8
INTERIOR_PROFILES
100
AcDbCircle
10
-90.749999999999972
20
22.212672322442213
30
0
40
3.0000000000000071
210
0
220
0
230
-1
0
CIRCLE
5
202
100
AcDbEntity
8
INTERIOR_PROFILES
100
AcDbCircle
10
-175.74999999999994
20
93.712672322442103
30
0
40
3.0000000000000071
210
0
220
0
230
-1
0
CIRCLE
5
203
100
AcDbEntity
8
INTERIOR_PROFILES
100
AcDbCircle
10
-6.7499999999999361
20
89.982672322442482
30
0
40
1.9999999999999929
210
0
220
0
230
-1
0
CIRCLE
5
204
100
AcDbEntity
8
INTERIOR_PROFILES
100
AcDbCircle
10
-324.25
20
22.212672322442284
30
0
40
3.0000000000000426
210
0
220
0
230
-1
0
CIRCLE
5
205
100
AcDbEntity
8
INTERIOR_PROFILES
100
AcDbCircle
10
-104.24999999999997
20
93.712672322442103
30
0
40
3.0000000000000071
210
0
220
0
230
-1
0
CIRCLE
5
206
100
AcDbEntity
8
INTERIOR_PROFILES
100
AcDbCircle
10
-324.25
20
93.712672322442302
30
0
40
3.0000000000000426
210
0
220
0
230
-1
0
CIRCLE
5
207
100
AcDbEntity
8
INTERIOR_PROFILES
100
AcDbCircle
10
-252.1699999999999
20
5.3649999999999753
30
0
40
1.8000000000000005
210
0
220
0
230
-1
0
SPLINE
5
208
100
AcDbEntity
8
INTERIOR_PROFILES
100
AcDbSpline
70
4
71
3
72
8
73
4
74
0
42
0.000000001
43
0.0000000001
44
0.0000000001
40
0
40
0
40
0
40
0
40
1
40
1
40
1
40
1
41
1
41
1
41
1
41
1
10
198.38617801983887
20
72.71964921874256
30
0
10
197.64702918580787
20
73.494577379073093
30
0
10
197.64206802519237
20
73.530151592789082
30
0
10
198.0441175329812
20
75.172821357523517
30
0
0
SPLINE
5
209
100
AcDbEntity
8
INTERIOR_PROFILES
100
AcDbSpline
70
4
71
3
72
8
73
4
74
0
42
0.000000001
43
0.0000000001
44
0.0000000001
40
0
40
0
40
0
40
0
40
1
40
1
40
1
40
1
41
1
41
1
41
1
41
1
10
199.5400484734634
20
72.84638315632678
30
0
10
199.13424284148763
20
71.979968373947941
30
0
10
199.09575218322377
20
71.975737926911435
30
0
10
198.38617801983887
20
72.71964921874256
30
0
0
LINE
5
210
100
AcDbEntity
8
INTERIOR_PROFILES
100
AcDbLine
10
199.5400484734634
20
72.84638315632678
30
0
11
199.80719158916568
21
73.416743563369835
31
0
0
LINE
5
211
100
AcDbEntity
8
INTERIOR_PROFILES
100
AcDbLine
10
199.80719158916568
20
73.416743563369835
30
0
11
200.31286461515978
21
73.349665338768432
31
0
0
SPLINE
5
212
100
AcDbEntity
8
INTERIOR_PROFILES
100
AcDbSpline
70
4
71
3
72
8
73
4
74
0
42
0.000000001
43
0.0000000001
44
0.0000000001
40
0
40
0
40
0
40
0
40
1
40
1
40
1
40
1
41
1
41
1
41
1
41
1
10
206.31626636557658
20
72.055654917291776
30
0
10
203.74264827185203
20
72.662448446994574
30
0
10
200.94089691191627
20
73.266351171222439
30
0
10
200.31286461515978
20
73.349665338768432
30
0
0
SPLINE
5
213
100
AcDbEntity
8
INTERIOR_PROFILES
100
AcDbSpline
70
4
71
3
72
8
73
4
74
0
42
0.000000001
43
0.0000000001
44
0.0000000001
40
0
40
0
40
0
40
0
40
1
40
1
40
1
40
1
41
1
41
1
41
1
41
1
10
209.26157089495075
20
71.389705636528646
30
0
10
208.71141407739105
20
71.503761052539843
30
0
10
207.38602463550961
20
71.803436946929608
30
0
10
206.31626636557658
20
72.055654917291776
30
0
0
SPLINE
5
214
100
AcDbEntity
8
INTERIOR_PROFILES
100
AcDbSpline
70
4
71
3
72
8
73
4
74
0
42
0.000000001
43
0.0000000001
44
0.0000000001
40
0
40
0
40
0
40
0
40
1
40
1
40
1
40
1
41
1
41
1
41
1
41
1
10
214.5408867666938
20
71.213751088651648
30
0
10
210.71807535100646
20
71.185689123309572
30
0
10
210.15520796303261
20
71.204424875866664
30
0
10
209.26157089495075
20
71.389705636528646
30
0
0
LINE
5
215
100
AcDbEntity
8
INTERIOR_PROFILES
100
AcDbLine
10
214.5408867666938
20
71.213751088651648
30
0
11
218.81991984642585
21
71.245171772549995
31
0
0
LINE
5
216
100
AcDbEntity
8
INTERIOR_PROFILES
100
AcDbLine
10
218.81991984642585
20
71.245171772549995
30
0
11
221.70965168518424
21
71.934535936683289
31
0
0
SPLINE
5
217
100
AcDbEntity
8
INTERIOR_PROFILES
100
AcDbSpline
70
4
71
3
72
8
73
4
74
0
42
0.000000001
43
0.0000000001
44
0.0000000001
40
0
40
0
40
0
40
0
40
1
40
1
40
1
40
1
41
1
41
1
41
1
41
1
10
228.05882197338389
20
73.334935691359561
30
0
10
227.31332746879815
20
73.234629228216974
30
0
10
225.27368152783458
20
72.784753234726935
30
0
10
221.70965168518424
20
71.934535936683289
30
0
0
LINE
5
218
100
AcDbEntity
8
INTERIOR_PROFILES
100
AcDbLine
10
228.05882197338389
20
73.334935691359561
30
0
11
228.62851576453025
21
73.411590109707191
31
0
0
LINE
5
219
100
AcDbEntity
8
INTERIOR_PROFILES
100
AcDbLine
10
228.62851576453025
20
73.411590109707191
30
0
11
229.28372227372796
21
72.005235680338643
31
0
0
LINE
5
220
100
AcDbEntity
8
INTERIOR_PROFILES
100
AcDbLine
10
229.28372227372796
20
72.005235680338643
30
0
11
229.97022127145928
21
72.690991144954452
31
0
0
SPLINE
5
221
100
AcDbEntity
8
INTERIOR_PROFILES
100
AcDbSpline
70
4
71
3
72
8
73
4
74
0
42
0.000000001
43
0.0000000001
44
0.0000000001
40
0
40
0
40
0
40
0
40
1
40
1
40
1
40
1
41
1
41
1
41
1
41
1
10
230.3645438036383
20
75.408976448683489
30
0
10
230.81379163984107
20
73.665077214180315
30
0
10
230.79149205614414
20
73.511370971854333
30
0
10
229.97022127145928
20
72.690991144954452
30
0
0
SPLINE
5
222
100
AcDbEntity
8
INTERIOR_PROFILES
100
AcDbSpline
70
4
71
3
72
8
73
4
74
0
42
0.000000001
43
0.0000000001
44
0.0000000001
40
0
40
0
40
0
40
0
40
1
40
1
40
1
40
1
41
1
41
1
41
1
41
1
10
230.13608684413106
20
78.219807245327118
30
0
10
230.07664906326829
20
76.655958400604462
30
0
10
230.09201968750091
20
76.466883057146092
30
0
10
230.3645438036383
20
75.408976448683489
30
0
0
SPLINE
5
223
100
AcDbEntity
8
INTERIOR_PROFILES
100
AcDbSpline
70
4
71
3
72
8
73
4
74
0
42
0.000000001
43
0.0000000001
44
0.0000000001
40
0
40
0
40
0
40
0
40
1
40
1
40
1
40
1
41
1
41
1
41
1
41
1
10
230.37365208430319
20
81.396879379502934
30
0
10
230.2780375715102
20
80.57164094827931
30
0
10
230.17112904708338
20
79.141954962527663
30
0
10
230.13608684413106
20
78.219807245327118
30
0
0
SPLINE
5
224
100
AcDbEntity
8
INTERIOR_PROFILES
100
AcDbSpline
70
4
71
3
72
8
73
4
74
0
42
0.000000001
43
0.0000000001
44
0.0000000001
40
0
40
0
40
0
40
0
40
1
40
1
40
1
40
1
41
1
41
1
41
1
41
1
10
230.7343874309197
20
90.066084510430429
30
0
10
230.76559659246618
20
87.566105039097963
30
0
10
230.58468729374192
20
83.218269507108701
30
0
10
230.37365208430319
20
81.396879379502934
30
0
0
SPLINE
5
225
100
AcDbEntity
8
INTERIOR_PROFILES
100
AcDbSpline
70
4
71
3
72
8
73
4
74
0
42
0.000000001
43
0.0000000001
44
0.0000000001
40
0
40
0
40
0
40
0
40
1
40
1
40
1
40
1
41
1
41
1
41
1
41
1
10
230.52758907828573
20
92.233387395604353
30
0
10
230.67464198118157
20
91.96676026624516
30
0
10
230.71608113283449
20
91.532524107253693
30
0
10
230.7343874309197
20
90.066084510430429
30
0
0
SPLINE
5
226
100
AcDbEntity
8
INTERIOR_PROFILES
100
AcDbSpline
70
4
71
3
72
8
73
4
74
0
42
0.000000001
43
0.0000000001
44
0.0000000001
40
0
40
0
40
0
40
0
40
1
40
1
40
1
40
1
41
1
41
1
41
1
41
1
10
226.22110296119405
20
96.180673305572313
30
0
10
227.06214788089042
20
95.681019051952845
30
0
10
230.22505442726219
20
92.781925746684166
30
0
10
230.52758907828573
20
92.233387395604353
30
0
0
SPLINE
5
227
100
AcDbEntity
8
INTERIOR_PROFILES
100
AcDbSpline
70
4
71
3
72
8
73
4
74
0
42
0.000000001
43
0.0000000001
44
0.0000000001
40
0
40
0
40
0
40
0
40
1
40
1
40
1
40
1
41
1
41
1
41
1
41
1
10
224.36518020721084
20
97.025205139189623
30
0
10
224.96485248440223
20
96.810875308877058
30
0
10
225.8000132368569
20
96.430833740330371
30
0
10
226.22110296119405
20
96.180673305572313
30
0
0
SPLINE
5
228
100
AcDbEntity
8
INTERIOR_PROFILES
100
AcDbSpline
70
4
71
3
72
8
73
4
74
0
42
0.000000001
43
0.0000000001
44
0.0000000001
40
0
40
0
40
0
40
0
40
1
40
1
40
1
40
1
41
1
41
1
41
1
41
1
10
221.02004715474206
20
97.956268844008008
30
0
10
221.31851160293502
20
97.953999786052051
30
0
10
223.34326765228377
20
97.390449757760948
30
0
10
224.36518020721084
20
97.025205139189623
30
0
0
SPLINE
5
229
100
AcDbEntity
8
INTERIOR_PROFILES
100
AcDbSpline
70
4
71
3
72
8
73
4
74
0
42
0.000000001
43
0.0000000001
44
0.0000000001
40
0
40
0
40
0
40
0
40
1
40
1
40
1
40
1
41
1
41
1
41
1
41
1
10
220.83042698098353
20
97.596065508155178
30
0
10
220.86109131222986
20
97.794733069780392
30
0
10
220.94640532746584
20
97.956826493844616
30
0
10
221.02004715474206
20
97.956268844008008
30
0
0
SPLINE
5
230
100
AcDbEntity
8
INTERIOR_PROFILES
100
AcDbSpline
70
4
71
3
72
8
73
4
74
0
42
0.000000001
43
0.0000000001
44
0.0000000001
40
0
40
0
40
0
40
0
40
1
40
1
40
1
40
1
41
1
41
1
41
1
41
1
10
220.54583006637159
20
95.901120878562949
30
0
10
220.67170829989612
20
96.634670780038789
30
0
10
220.79977546927367
20
97.397394741645854
30
0
10
220.83042698098353
20
97.596065508155178
30
0
0
SPLINE
5
231
100
AcDbEntity
8
INTERIOR_PROFILES
100
AcDbSpline
70
4
71
3
72
8
73
4
74
0
42
0.000000001
43
0.0000000001
44
0.0000000001
40
0
40
0
40
0
40
0
40
1
40
1
40
1
40
1
41
1
41
1
41
1
41
1
10
219.76641827315919
20
91.121943197941278
30
0
10
220.06921251979631
20
93.016943103982044
30
0
10
220.41995183284706
20
95.167577386855356
30
0
10
220.54583006637159
20
95.901120878562949
30
0
0
SPLINE
5
232
100
AcDbEntity
8
INTERIOR_PROFILES
100
AcDbSpline
70
4
71
3
72
8
73
4
74
0
42
0.000000001
43
0.0000000001
44
0.0000000001
40
0
40
0
40
0
40
0
40
1
40
1
40
1
40
1
41
1
41
1
41
1
41
1
10
218.60216719987466
20
85.767168329626813
30
0
10
219.00984127929152
20
86.659901620387245
30
0
10
219.17430631760351
20
87.416331189585463
30
0
10
219.76641827315919
20
91.121943197941278
30
0
0
SPLINE
5
233
100
AcDbEntity
8
INTERIOR_PROFILES
100
AcDbSpline
70
4
71
3
72
8
73
4
74
0
42
0.000000001
43
0.0000000001
44
0.0000000001
40
0
40
0
40
0
40
0
40
1
40
1
40
1
40
1
41
1
41
1
41
1
41
1
10
214.07748295733933
20
84.786752614266788
30
0
10
218.17148205248654
20
84.786752614266788
30
0
10
218.15257964595529
20
84.782551011187365
30
0
10
218.60216719987466
20
85.767168329626813
30
0
0
LINE
5
234
100
AcDbEntity
8
INTERIOR_PROFILES
100
AcDbLine
10
214.07748295733933
20
84.786752614266788
30
0
11
210.55763244226327
21
84.786752614266788
31
0
0
LINE
5
235
100
AcDbEntity
8
INTERIOR_PROFILES
100
AcDbLine
10
210.55763244226327
20
84.786752614266788
30
0
11
210.27955426194848
21
85.047989128538575
31
0
0
SPLINE
5
236
100
AcDbEntity
8
INTERIOR_PROFILES
100
AcDbSpline
70
4
71
3
72
8
73
4
74
0
42
0.000000001
43
0.0000000001
44
0.0000000001
40
0
40
0
40
0
40
0
40
1
40
1
40
1
40
1
41
1
41
1
41
1
41
1
10
209.26321179561941
20
87.600304357527079
30
0
10
209.5089206463368
20
86.490247874687327
30
0
10
209.96589225326534
20
85.342658993935146
30
0
10
210.27955426194848
20
85.047989128538575
30
0
0
SPLINE
5
237
100
AcDbEntity
8
INTERIOR_PROFILES
100
AcDbSpline
70
4
71
3
72
8
73
4
74
0
42
0.000000001
43
0.0000000001
44
0.0000000001
40
0
40
0
40
0
40
0
40
1
40
1
40
1
40
1
41
1
41
1
41
1
41
1
10
208.48589920150471
20
92.122235604604583
30
0
10
208.82296006913742
20
90.043849024415877
30
0
10
209.17275394137317
20
88.008981565673068
30
0
10
209.26321179561941
20
87.600304357527079
30
0
0
SPLINE
5
238
100
AcDbEntity
8
INTERIOR_PROFILES
100
AcDbSpline
70
4
71
3
72
8
73
4
74
0
42
0.000000001
43
0.0000000001
44
0.0000000001
40
0
40
0
40
0
40
0
40
1
40
1
40
1
40
1
41
1
41
1
41
1
41
1
10
207.49628546872444
20
97.925742322778746
30
0
10
207.5519799449367
20
97.870047846566465
30
0
10
207.58818552082403
20
97.657717863943844
30
0
10
208.48589920150471
20
92.122235604604583
30
0
0
SPLINE
5
239
100
AcDbEntity
8
INTERIOR_PROFILES
100
AcDbSpline
70
4
71
3
72
8
73
4
74
0
42
0.000000001
43
0.0000000001
44
0.0000000001
40
0
40
0
40
0
40
0
40
1
40
1
40
1
40
1
41
1
41
1
41
1
41
1
10
206.79743805248432
20
97.846466309222123
30
0
10
207.15377629809015
20
97.918092264387752
30
0
10
207.46825555222352
20
97.953765829511411
30
0
10
207.49628546872444
20
97.925742322778746
30
0
0
SPLINE
5
240
100
AcDbEntity
8
INTERIOR_PROFILES
100
AcDbSpline
70
4
71
3
72
8
73
4
74
0
42
0.000000001
43
0.0000000001
44
0.0000000001
40
0
40
0
40
0
40
0
40
1
40
1
40
1
40
1
41
1
41
1
41
1
41
1
10
200.90452788693887
20
95.149027517577139
30
0
10
202.22549779362086
20
96.347259977170765
30
0
10
204.48544426400989
20
97.381738882726694
30
0
10
206.79743805248432
20
97.846466309222123
30
0
0
SPLINE
5
241
100
AcDbEntity
8
INTERIOR_PROFILES
100
AcDbSpline
70
4
71
3
72
8
73
4
74
0
42
0.000000001
43
0.0000000001
44
0.0000000001
40
0
40
0
40
0
40
0
40
1
40
1
40
1
40
1
41
1
41
1
41
1
41
1
10
197.87211460722236
20
92.129517101321937
30
0
10
197.97957757660168
20
92.412165446389807
30
0
10
198.92334223718191
20
93.351914387169458
30
0
10
200.90452788693887
20
95.149027517577139
30
0
0
SPLINE
5
242
100
AcDbEntity
8
INTERIOR_PROFILES
100
AcDbSpline
70
4
71
3
72
8
73
4
74
0
42
0.000000001
43
0.0000000001
44
0.0000000001
40
0
40
0
40
0
40
0
40
1
40
1
40
1
40
1
41
1
41
1
41
1
41
1
10
197.75969047722754
20
88.308327356998603
30
0
10
197.75885079758842
20
90.447956067808789
30
0
10
197.80289872491392
20
91.947479683387911
30
0
10
197.87211460722236
20
92.129517101321937
30
0
0
SPLINE
5
243
100
AcDbEntity
8
INTERIOR_PROFILES
100
AcDbSpline
70
4
71
3
72
8
73
4
74
0
42
0.000000001
43
0.0000000001
44
0.0000000001
40
0
40
0
40
0
40
0
40
1
40
1
40
1
40
1
41
1
41
1
41
1
41
1
10
198.26511672714449
20
79.389461753235537
30
0
10
197.89905165823882
20
82.356101196186927
30
0
10
197.76118715811089
20
84.788890271973855
30
0
10
197.75969047722754
20
88.308327356998603
30
0
0
SPLINE
5
244
100
AcDbEntity
8
INTERIOR_PROFILES
100
AcDbSpline
70
4
71
3
72
8
73
4
74
0
42
0.000000001
43
0.0000000001
44
0.0000000001
40
0
40
0
40
0
40
0
40
1
40
1
40
1
40
1
41
1
41
1
41
1
41
1
10
198.0441175329812
20
75.172821357523517
30
0
10
198.43671904238849
20
76.776885088165841
30
0
10
198.48166754215126
20
77.634499258755113
30
0
10
198.26511672714449
20
79.389461753235537
30
0
0
SPLINE
5
245
100
AcDbEntity
8
INTERIOR_PROFILES
100
AcDbSpline
70
4
71
3
72
8
73
4
74
0
42
0.000000001
43
0.0000000001
44
0.0000000001
40
0
40
0
40
0
40
0
40
1
40
1
40
1
40
1
41
1
41
1
41
1
41
1
10
218.54766173567037
20
70.098829591719934
30
0
10
218.83103438454901
20
69.240202677749181
30
0
10
219.73747496468451
20
69.013053310962363
30
0
10
222.87666536857898
20
69.014008366429692
30
0
0
SPLINE
5
246
100
AcDbEntity
8
INTERIOR_PROFILES
100
AcDbSpline
70
4
71
3
72
8
73
4
74
0
42
0.000000001
43
0.0000000001
44
0.0000000001
40
0
40
0
40
0
40
0
40
1
40
1
40
1
40
1
41
1
41
1
41
1
41
1
10
218.07927433151153
20
70.547340304575457
30
0
10
218.34514831310287
20
70.494164867280361
30
0
10
218.45047362477513
20
70.393307164069384
30
0
10
218.54766173567037
20
70.098829591719934
30
0
0
SPLINE
5
247
100
AcDbEntity
8
INTERIOR_PROFILES
100
AcDbSpline
70
4
71
3
72
8
73
4
74
0
42
0.000000001
43
0.0000000001
44
0.0000000001
40
0
40
0
40
0
40
0
40
1
40
1
40
1
40
1
41
1
41
1
41
1
41
1
10
210.27364125074973
20
70.509279100783488
30
0
10
210.5802941778656
20
70.625872785016568
30
0
10
217.51750621879034
20
70.659697132003828
30
0
10
218.07927433151153
20
70.547340304575457
30
0
0
SPLINE
5
248
100
AcDbEntity
8
INTERIOR_PROFILES
100
AcDbSpline
70
4
71
3
72
8
73
4
74
0
42
0.000000001
43
0.0000000001
44
0.0000000001
40
0
40
0
40
0
40
0
40
1
40
1
40
1
40
1
41
1
41
1
41
1
41
1
10
209.76902263163061
20
69.96341682794268
30
0
10
209.8922600406415
20
70.204975353726525
30
0
10
210.11933569509358
20
70.450616901877424
30
0
10
210.27364125074973
20
70.509279100783488
30
0
0
SPLINE
5
249
100
AcDbEntity
8
INTERIOR_PROFILES
100
AcDbSpline
70
4
71
3
72
8
73
4
74
0
42
0.000000001
43
0.0000000001
44
0.0000000001
40
0
40
0
40
0
40
0
40
1
40
1
40
1
40
1
41
1
41
1
41
1
41
1
10
209.01425960217406
20
69.349604602020236
30
0
10
209.44439991926203
20
69.491132284695695
30
0
10
209.5874178730526
20
69.607437529358108
30
0
10
209.76902263163061
20
69.96341682794268
30
0
0
SPLINE
5
250
100
AcDbEntity
8
INTERIOR_PROFILES
100
AcDbSpline
70
4
71
3
72
8
73
4
74
0
42
0.000000001
43
0.0000000001
44
0.0000000001
40
0
40
0
40
0
40
0
40
1
40
1
40
1
40
1
41
1
41
1
41
1
41
1
10
205.22791976775594
20
68.950993934890633
30
0
10
207.05123923560106
20
68.953512973807818
30
0
10
208.16690106076419
20
69.070805322778753
30
0
10
209.01425960217406
20
69.349604602020236
30
0
0
SPLINE
5
251
100
AcDbEntity
8
INTERIOR_PROFILES
100
AcDbSpline
70
4
71
3
72
8
73
4
74
0
42
0.000000001
43
0.0000000001
44
0.0000000001
40
0
40
0
40
0
40
0
40
1
40
1
40
1
40
1
41
1
41
1
41
1
41
1
10
200.55929456480385
20
69.953109920617393
30
0
10
201.44676864072574
20
69.261303634785747
30
0
10
202.90645554671119
20
68.947987753587412
30
0
10
205.22791976775594
20
68.950993934890633
30
0
0
SPLINE
5
252
100
AcDbEntity
8
INTERIOR_PROFILES
100
AcDbSpline
70
4
71
3
72
8
73
4
74
0
42
0.000000001
43
0.0000000001
44
0.0000000001
40
0
40
0
40
0
40
0
40
1
40
1
40
1
40
1
41
1
41
1
41
1
41
1
10
199.09192234670212
20
71.319300742212192
30
0
10
199.7337773086619
20
70.696675084963715
30
0
10
200.39409560802875
20
70.081888574269229
30
0
10
200.55929456480385
20
69.953109920617393
30
0
0
SPLINE
5
253
100
AcDbEntity
8
INTERIOR_PROFILES
100
AcDbSpline
70
4
71
3
72
8
73
4
74
0
42
0.000000001
43
0.0000000001
44
0.0000000001
40
0
40
0
40
0
40
0
40
1
40
1
40
1
40
1
41
1
41
1
41
1
41
1
10
197.67766787798132
20
72.65975634433498
30
0
10
197.8136543160158
20
72.54513045895068
30
0
10
198.45006738474228
20
71.941932809228902
30
0
10
199.09192234670212
20
71.319300742212192
30
0
0
SPLINE
5
254
100
AcDbEntity
8
INTERIOR_PROFILES
100
AcDbSpline
70
4
71
3
72
8
73
4
74
0
42
0.000000001
43
0.0000000001
44
0.0000000001
40
0
40
0
40
0
40
0
40
1
40
1
40
1
40
1
41
1
41
1
41
1
41
1
10
197.31309308019078
20
72.559565257020665
30
0
10
197.42942716881026
20
72.865541953587496
30
0
10
197.43251347221644
20
72.866394452763046
30
0
10
197.67766787798132
20
72.65975634433498
30
0
0
SPLINE
5
255
100
AcDbEntity
8
INTERIOR_PROFILES
100
AcDbSpline
70
4
71
3
72
8
73
4
74
0
42
0.000000001
43
0.0000000001
44
0.0000000001
40
0
40
0
40
0
40
0
40
1
40
1
40
1
40
1
41
1
41
1
41
1
41
1
10
196.64676562310166
20
68.532032253608179
30
0
10
196.64676562310166
20
69.1754063306402
30
0
10
197.12464909890375
20
72.063917108549404
30
0
10
197.31309308019078
20
72.559565257020665
30
0
0
SPLINE
5
256
100
AcDbEntity
8
INTERIOR_PROFILES
100
AcDbSpline
70
4
71
3
72
8
73
4
74
0
42
0.000000001
43
0.0000000001
44
0.0000000001
40
0
40
0
40
0
40
0
40
1
40
1
40
1
40
1
41
1
41
1
41
1
41
1
10
199.78901989621349
20
62.450271086492691
30
0
10
197.03562062297436
20
66.603602201326751
30
0
10
196.64676562310166
20
67.356217958423883
30
0
10
196.64676562310166
20
68.532032253608179
30
0
0
SPLINE
5
257
100
AcDbEntity
8
INTERIOR_PROFILES
100
AcDbSpline
70
4
71
3
72
8
73
4
74
0
42
0.000000001
43
0.0000000001
44
0.0000000001
40
0
40
0
40
0
40
0
40
1
40
1
40
1
40
1
41
1
41
1
41
1
41
1
10
203.76654388784002
20
54.938106039582983
30
0
10
203.41667630326953
20
56.74294935048465
30
0
10
202.79798303883453
20
57.911443690342168
30
0
10
199.78901989621349
20
62.450271086492691
30
0
0
SPLINE
5
258
100
AcDbEntity
8
INTERIOR_PROFILES
100
AcDbSpline
70
4
71
3
72
8
73
4
74
0
42
0.000000001
43
0.0000000001
44
0.0000000001
40
0
40
0
40
0
40
0
40
1
40
1
40
1
40
1
41
1
41
1
41
1
41
1
10
203.98333506915563
20
53.468089792083418
30
0
10
203.98291522933613
20
53.664594056928614
30
0
10
203.8851822881407
20
54.326101368303412
30
0
10
203.76654388784002
20
54.938106039582983
30
0
0
SPLINE
5
259
100
AcDbEntity
8
INTERIOR_PROFILES
100
AcDbSpline
70
4
71
3
72
8
73
4
74
0
42
0.000000001
43
0.0000000001
44
0.0000000001
40
0
40
0
40
0
40
0
40
1
40
1
40
1
40
1
41
1
41
1
41
1
41
1
10
204.25384331318241
20
52.532141843868381
30
0
10
204.10565908619273
20
52.850412475913998
30
0
10
203.98393117760168
20
53.271585527238244
30
0
10
203.98333506915563
20
53.468089792083418
30
0
0
SPLINE
5
260
100
AcDbEntity
8
INTERIOR_PROFILES
100
AcDbSpline
70
4
71
3
72
8
73
4
74
0
42
0.000000001
43
0.0000000001
44
0.0000000001
40
0
40
0
40
0
40
0
40
1
40
1
40
1
40
1
41
1
41
1
41
1
41
1
10
205.28083560943742
20
51.394593865059655
30
0
10
204.69289641300409
20
51.828323652360396
30
0
10
204.46293636284531
20
52.083041432335037
30
0
10
204.25384331318241
20
52.532141843868381
30
0
0
SPLINE
5
261
100
AcDbEntity
8
INTERIOR_PROFILES
100
AcDbSpline
70
4
71
3
72
8
73
4
74
0
42
0.000000001
43
0.0000000001
44
0.0000000001
40
0
40
0
40
0
40
0
40
1
40
1
40
1
40
1
41
1
41
1
41
1
41
1
10
206.17167160879967
20
50.834014764346435
30
0
10
206.09837270412416
20
50.834854443985492
30
0
10
205.6974929790386
20
51.087187790175932
30
0
10
205.28083560943742
20
51.394593865059655
30
0
0
SPLINE
5
262
100
AcDbEntity
8
INTERIOR_PROFILES
100
AcDbSpline
70
4
71
3
72
8
73
4
74
0
42
0.000000001
43
0.0000000001
44
0.0000000001
40
0
40
0
40
0
40
0
40
1
40
1
40
1
40
1
41
1
41
1
41
1
41
1
10
206.98082472663225
20
51.980164652129375
30
0
10
206.82080165770859
20
51.480946262750045
30
0
10
206.36238785292673
20
50.83161751102574
30
0
10
206.17167160879967
20
50.834014764346435
30
0
0
SPLINE
5
263
100
AcDbEntity
8
INTERIOR_PROFILES
100
AcDbSpline
70
4
71
3
72
8
73
4
74
0
42
0.000000001
43
0.0000000001
44
0.0000000001
40
0
40
0
40
0
40
0
40
1
40
1
40
1
40
1
41
1
41
1
41
1
41
1
10
207.4669383448508
20
52.620282566896925
30
0
10
207.24483026078246
20
52.483921157420568
30
0
10
207.06741428574742
20
52.25029792471426
30
0
10
206.98082472663225
20
51.980164652129375
30
0
0
SPLINE
5
264
100
AcDbEntity
8
INTERIOR_PROFILES
100
AcDbSpline
70
4
71
3
72
8
73
4
74
0
42
0.000000001
43
0.0000000001
44
0.0000000001
40
0
40
0
40
0
40
0
40
1
40
1
40
1
40
1
41
1
41
1
41
1
41
1
10
214.38947522139668
20
52.806185075077934
30
0
10
208.06122000695478
20
52.833952191081096
30
0
10
207.80368833872402
20
52.827023231616785
30
0
10
207.4669383448508
20
52.620282566896925
30
0
0
LINE
5
265
100
AcDbEntity
8
INTERIOR_PROFILES
100
AcDbLine
10
214.38947522139668
20
52.806185075077934
30
0
11
220.96225347943209
21
52.777366757083868
31
0
0
LINE
5
266
100
AcDbEntity
8
INTERIOR_PROFILES
100
AcDbLine
10
220.96225347943209
20
52.777366757083868
30
0
11
221.18792539464027
21
52.499509713773236
31
0
0
SPLINE
5
267
100
AcDbEntity
8
INTERIOR_PROFILES
100
AcDbSpline
70
4
71
3
72
8
73
4
74
0
42
0.000000001
43
0.0000000001
44
0.0000000001
40
0
40
0
40
0
40
0
40
1
40
1
40
1
40
1
41
1
41
1
41
1
41
1
10
221.5432380773282
20
51.832650245920448
30
0
10
221.47193581545855
20
52.046601899907053
30
0
10
221.31204735166787
20
52.34668801946399
30
0
10
221.18792539464027
20
52.499509713773236
30
0
0
SPLINE
5
268
100
AcDbEntity
8
INTERIOR_PROFILES
100
AcDbSpline
70
4
71
3
72
8
73
4
74
0
42
0.000000001
43
0.0000000001
44
0.0000000001
40
0
40
0
40
0
40
0
40
1
40
1
40
1
40
1
41
1
41
1
41
1
41
1
10
221.93167323738137
20
51.120512175240677
30
0
10
221.7893315141398
20
51.298235819151117
30
0
10
221.61453713431371
20
51.618698591933843
30
0
10
221.5432380773282
20
51.832650245920448
30
0
0
SPLINE
5
269
100
AcDbEntity
8
INTERIOR_PROFILES
100
AcDbSpline
70
4
71
3
72
8
73
4
74
0
42
0.000000001
43
0.0000000001
44
0.0000000001
40
0
40
0
40
0
40
0
40
1
40
1
40
1
40
1
41
1
41
1
41
1
41
1
10
222.51771834730064
20
50.932930307781561
30
0
10
222.21459399759934
20
50.807375767552983
30
0
10
222.17139536456529
20
50.821201637640442
30
0
10
221.93167323738137
20
51.120512175240677
30
0
0
SPLINE
5
270
100
AcDbEntity
8
INTERIOR_PROFILES
100
AcDbSpline
70
4
71
3
72
8
73
4
74
0
42
0.000000001
43
0.0000000001
44
0.0000000001
40
0
40
0
40
0
40
0
40
1
40
1
40
1
40
1
41
1
41
1
41
1
41
1
10
224.30828069456999
20
52.743093726320033
30
0
10
224.16986174948957
20
52.316863367856705
30
0
10
222.99749590961682
20
51.131658762205035
30
0
10
222.51771834730064
20
50.932930307781561
30
0
0
SPLINE
5
271
100
AcDbEntity
8
INTERIOR_PROFILES
100
AcDbSpline
70
4
71
3
72
8
73
4
74
0
42
0.000000001
43
0.0000000001
44
0.0000000001
40
0
40
0
40
0
40
0
40
1
40
1
40
1
40
1
41
1
41
1
41
1
41
1
10
224.5992008455479
20
54.277810174405012
30
0
10
224.50486828640226
20
53.635955212445189
30
0
10
224.37396158969568
20
52.945328323969179
30
0
10
224.30828069456999
20
52.743093726320033
30
0
0
SPLINE
5
272
100
AcDbEntity
8
INTERIOR_PROFILES
100
AcDbSpline
70
4
71
3
72
8
73
4
74
0
42
0.000000001
43
0.0000000001
44
0.0000000001
40
0
40
0
40
0
40
0
40
1
40
1
40
1
40
1
41
1
41
1
41
1
41
1
10
226.9142552983555
20
59.778128445195485
30
0
10
225.35275883857588
20
57.452690167843734
30
0
10
224.91182447177661
20
56.405077647169939
30
0
10
224.5992008455479
20
54.277810174405012
30
0
0
SPLINE
5
273
100
AcDbEntity
8
INTERIOR_PROFILES
100
AcDbSpline
70
4
71
3
72
8
73
4
74
0
42
0.000000001
43
0.0000000001
44
0.0000000001
40
0
40
0
40
0
40
0
40
1
40
1
40
1
40
1
41
1
41
1
41
1
41
1
10
230.33982132754772
20
65.03613183755013
30
0
10
229.37991366566234
20
63.475116110388271
30
0
10
228.83195539860799
20
62.634032732082503
30
0
10
226.9142552983555
20
59.778128445195485
30
0
0
SPLINE
5
274
100
AcDbEntity
8
INTERIOR_PROFILES
100
AcDbSpline
70
4
71
3
72
8
73
4
74
0
42
0.000000001
43
0.0000000001
44
0.0000000001
40
0
40
0
40
0
40
0
40
1
40
1
40
1
40
1
41
1
41
1
41
1
41
1
10
231.55115214853384
20
67.297292959020112
30
0
10
231.43179585419057
20
66.942999429481915
30
0
10
230.88669634376998
20
65.925474360913128
30
0
10
230.33982132754772
20
65.03613183755013
30
0
0
SPLINE
5
275
100
AcDbEntity
8
INTERIOR_PROFILES
100
AcDbSpline
70
4
71
3
72
8
73
4
74
0
42
0.000000001
43
0.0000000001
44
0.0000000001
40
0
40
0
40
0
40
0
40
1
40
1
40
1
40
1
41
1
41
1
41
1
41
1
10
231.49805362845763
20
70.630692930730874
30
0
10
231.82656707014615
20
69.182553222224584
30
0
10
231.84280942285898
20
68.163073174343481
30
0
10
231.55115214853384
20
67.297292959020112
30
0
0
SPLINE
5
276
100
AcDbEntity
8
INTERIOR_PROFILES
100
AcDbSpline
70
4
71
3
72
8
73
4
74
0
42
0.000000001
43
0.0000000001
44
0.0000000001
40
0
40
0
40
0
40
0
40
1
40
1
40
1
40
1
41
1
41
1
41
1
41
1
10
231.15300939448557
20
72.325634355438979
30
0
10
231.19533309415522
20
72.043393030654187
30
0
10
231.35060331993105
20
71.280669069047121
30
0
10
231.49805362845763
20
70.630692930730874
30
0
0
SPLINE
5
277
100
AcDbEntity
8
INTERIOR_PROFILES
100
AcDbSpline
70
4
71
3
72
8
73
4
74
0
42
0.000000001
43
0.0000000001
44
0.0000000001
40
0
40
0
40
0
40
0
40
1
40
1
40
1
40
1
41
1
41
1
41
1
41
1
10
230.99884164884654
20
72.838806810270512
30
0
10
231.04131277318561
20
72.838806810270512
30
0
10
231.11068569481591
20
72.607882089992032
30
0
10
231.15300939448557
20
72.325634355438979
30
0
0
SPLINE
5
278
100
AcDbEntity
8
INTERIOR_PROFILES
100
AcDbSpline
70
4
71
3
72
8
73
4
74
0
42
0.000000001
43
0.0000000001
44
0.0000000001
40
0
40
0
40
0
40
0
40
1
40
1
40
1
40
1
41
1
41
1
41
1
41
1
10
229.52465905199284
20
71.477301529257048
30
0
10
230.29299156080737
20
72.226129113326039
30
0
10
230.95637693427565
20
72.838806810270512
30
0
10
230.99884164884654
20
72.838806810270512
30
0
0
SPLINE
5
279
100
AcDbEntity
8
INTERIOR_PROFILES
100
AcDbSpline
70
4
71
3
72
8
73
4
74
0
42
0.000000001
43
0.0000000001
44
0.0000000001
40
0
40
0
40
0
40
0
40
1
40
1
40
1
40
1
41
1
41
1
41
1
41
1
10
227.85835006199991
20
69.867161338325943
30
0
10
228.00648621572782
20
70.003913743664754
30
0
10
228.75632013341004
20
70.728473945188043
30
0
10
229.52465905199284
20
71.477301529257048
30
0
0
SPLINE
5
280
100
AcDbEntity
8
INTERIOR_PROFILES
100
AcDbSpline
70
4
71
3
72
8
73
4
74
0
42
0.000000001
43
0.0000000001
44
0.0000000001
40
0
40
0
40
0
40
0
40
1
40
1
40
1
40
1
41
1
41
1
41
1
41
1
10
226.42763210356208
20
69.316632754208527
30
0
10
227.15425625045776
20
69.505515804619776
30
0
10
227.6898372550462
20
69.711602672979438
30
0
10
227.85835006199991
20
69.867161338325943
30
0
0
SPLINE
5
281
100
AcDbEntity
8
INTERIOR_PROFILES
100
AcDbSpline
70
4
71
3
72
8
73
4
74
0
42
0.000000001
43
0.0000000001
44
0.0000000001
40
0
40
0
40
0
40
0
40
1
40
1
40
1
40
1
41
1
41
1
41
1
41
1
10
222.87666536857898
20
69.014008366429692
30
0
10
225.11587944360511
20
69.014848046068749
30
0
10
225.33933678388735
20
69.033750452600003
30
0
10
226.42763210356208
20
69.316632754208527
30
0
0
SPLINE
5
282
100
AcDbEntity
8
INTERIOR_PROFILES
100
AcDbSpline
70
4
71
3
72
8
73
4
74
0
42
0.000000001
43
0.0000000001
44
0.0000000001
40
0
40
0
40
0
40
0
40
1
40
1
40
1
40
1
41
1
41
1
41
1
41
1
10
219.98239220902462
20
51.369582949398435
30
0
10
220.40083790396395
20
51.233304866909165
30
0
10
221.92012283501811
20
49.774980036674101
30
0
10
222.04125463516306
20
49.393323206531662
30
0
0
SPLINE
5
283
100
AcDbEntity
8
INTERIOR_PROFILES
100
AcDbSpline
70
4
71
3
72
8
73
4
74
0
42
0.000000001
43
0.0000000001
44
0.0000000001
40
0
40
0
40
0
40
0
40
1
40
1
40
1
40
1
41
1
41
1
41
1
41
1
10
214.207473057188
20
51.524801897028382
30
0
10
217.82428413638684
20
51.504681634532062
30
0
10
219.72444070097436
20
51.453589371914035
30
0
10
219.98239220902462
20
51.369582949398435
30
0
0
SPLINE
5
284
100
AcDbEntity
8
INTERIOR_PROFILES
100
AcDbSpline
70
4
71
3
72
8
73
4
74
0
42
0.000000001
43
0.0000000001
44
0.0000000001
40
0
40
0
40
0
40
0
40
1
40
1
40
1
40
1
41
1
41
1
41
1
41
1
10
208.39735786796132
20
51.346289851624753
30
0
10
208.79306170519541
20
51.542909492298215
30
0
10
209.12460055749187
20
51.553101023795229
30
0
10
214.207473057188
20
51.524801897028382
30
0
0
SPLINE
5
285
100
AcDbEntity
8
INTERIOR_PROFILES
100
AcDbSpline
70
4
71
3
72
8
73
4
74
0
42
0.000000001
43
0.0000000001
44
0.0000000001
40
0
40
0
40
0
40
0
40
1
40
1
40
1
40
1
41
1
41
1
41
1
41
1
10
206.4620885929709
20
49.520999380046717
30
0
10
207.21539980992176
20
50.404758995275181
30
0
10
208.00912141072348
20
51.15337505699236
30
0
10
208.39735786796132
20
51.346289851624753
30
0
0
LINE
5
286
100
AcDbEntity
8
INTERIOR_PROFILES
100
AcDbLine
10
206.4620885929709
20
49.520999380046717
30
0
11
206.14955470349747
21
49.154347817347372
31
0
0
LINE
5
287
100
AcDbEntity
8
INTERIOR_PROFILES
100
AcDbLine
10
206.14955470349747
20
49.154347817347372
30
0
11
204.90056649411829
21
50.382363265054707
31
0
0
SPLINE
5
288
100
AcDbEntity
8
INTERIOR_PROFILES
100
AcDbSpline
70
4
71
3
72
8
73
4
74
0
42
0.000000001
43
0.0000000001
44
0.0000000001
40
0
40
0
40
0
40
0
40
1
40
1
40
1
40
1
41
1
41
1
41
1
41
1
10
203.5507334010646
20
51.610378712762071
30
0
10
203.60620033050449
20
51.610378712762071
30
0
10
204.21362522237865
20
51.057766953967572
30
0
10
204.90056649411829
20
50.382363265054707
30
0
0
SPLINE
5
289
100
AcDbEntity
8
INTERIOR_PROFILES
100
AcDbSpline
70
4
71
3
72
8
73
4
74
0
42
0.000000001
43
0.0000000001
44
0.0000000001
40
0
40
0
40
0
40
0
40
1
40
1
40
1
40
1
41
1
41
1
41
1
41
1
10
203.40117427878806
20
51.193589942912013
30
0
10
203.42797351978743
20
51.422822484375885
30
0
10
203.49526647162477
20
51.610378712762078
30
0
10
203.5507334010646
20
51.610378712762071
30
0
0
SPLINE
5
290
100
AcDbEntity
8
INTERIOR_PROFILES
100
AcDbSpline
70
4
71
3
72
8
73
4
74
0
42
0.000000001
43
0.0000000001
44
0.0000000001
40
0
40
0
40
0
40
0
40
1
40
1
40
1
40
1
41
1
41
1
41
1
41
1
10
203.04637437755915
20
49.628189934275966
30
0
10
203.21472694030692
20
50.25992387218939
30
0
10
203.37438144755694
20
50.964357401448126
30
0
10
203.40117427878806
20
51.193589942912013
30
0
0
SPLINE
5
291
100
AcDbEntity
8
INTERIOR_PROFILES
100
AcDbSpline
70
4
71
3
72
8
73
4
74
0
42
0.000000001
43
0.0000000001
44
0.0000000001
40
0
40
0
40
0
40
0
40
1
40
1
40
1
40
1
41
1
41
1
41
1
41
1
10
202.80729002231482
20
48.212605438645966
30
0
10
202.76973519021357
20
48.362292756287282
30
0
10
202.87475603789454
20
48.984181290188488
30
0
10
203.04637437755915
20
49.628189934275966
30
0
0
SPLINE
5
292
100
AcDbEntity
8
INTERIOR_PROFILES
100
AcDbSpline
70
4
71
3
72
8
73
4
74
0
42
0.000000001
43
0.0000000001
44
0.0000000001
40
0
40
0
40
0
40
0
40
1
40
1
40
1
40
1
41
1
41
1
41
1
41
1
10
204.23406276840268
20
46.613810537494572
30
0
10
203.48619023980103
20
47.346318851631878
30
0
10
202.84414298479408
20
48.06577046787018
30
0
10
202.80729002231482
20
48.212605438645966
30
0
0
SPLINE
5
293
100
AcDbEntity
8
INTERIOR_PROFILES
100
AcDbSpline
70
4
71
3
72
8
73
4
74
0
42
0.000000001
43
0.0000000001
44
0.0000000001
40
0
40
0
40
0
40
0
40
1
40
1
40
1
40
1
41
1
41
1
41
1
41
1
10
205.76055227895534
20
45.282238874148419
30
0
10
205.66886054432342
20
45.282123498320139
30
0
10
204.98193850188846
20
45.881308633125506
30
0
10
204.23406276840268
20
46.613810537494572
30
0
0
SPLINE
5
294
100
AcDbEntity
8
INTERIOR_PROFILES
100
AcDbSpline
70
4
71
3
72
8
73
4
74
0
42
0.000000001
43
0.0000000001
44
0.0000000001
40
0
40
0
40
0
40
0
40
1
40
1
40
1
40
1
41
1
41
1
41
1
41
1
10
206.98313544808173
20
46.128969258271084
30
0
10
206.40241044579926
20
45.663402152136584
30
0
10
205.85224721847138
20
45.282379889049622
30
0
10
205.76055227895534
20
45.282238874148419
30
0
0
SPLINE
5
295
100
AcDbEntity
8
INTERIOR_PROFILES
100
AcDbSpline
70
4
71
3
72
8
73
4
74
0
42
0.000000001
43
0.0000000001
44
0.0000000001
40
0
40
0
40
0
40
0
40
1
40
1
40
1
40
1
41
1
41
1
41
1
41
1
10
210.21328046326084
20
47.489038751199438
30
0
10
208.72654113043066
20
47.390930838562184
30
0
10
208.36999456735711
20
47.240801246912518
30
0
10
206.98313544808173
20
46.128969258271084
30
0
0
SPLINE
5
296
100
AcDbEntity
8
INTERIOR_PROFILES
100
AcDbSpline
70
4
71
3
72
8
73
4
74
0
42
0.000000001
43
0.0000000001
44
0.0000000001
40
0
40
0
40
0
40
0
40
1
40
1
40
1
40
1
41
1
41
1
41
1
41
1
10
212.03676017531191
20
47.981341000650914
30
0
10
211.44620258855369
20
47.589236248281992
30
0
10
211.35388590151871
20
47.56430865960786
30
0
10
210.21328046326084
20
47.489038751199438
30
0
0
SPLINE
5
297
100
AcDbEntity
8
INTERIOR_PROFILES
100
AcDbSpline
70
4
71
3
72
8
73
4
74
0
42
0.000000001
43
0.0000000001
44
0.0000000001
40
0
40
0
40
0
40
0
40
1
40
1
40
1
40
1
41
1
41
1
41
1
41
1
10
216.08831058030884
20
48.173037939318277
30
0
10
215.25257615359692
20
48.840922970088997
30
0
10
213.18397087973807
20
48.743045809108274
30
0
10
212.03676017531191
20
47.981341000650914
30
0
0
SPLINE
5
298
100
AcDbEntity
8
INTERIOR_PROFILES
100
AcDbSpline
70
4
71
3
72
8
73
4
74
0
42
0.000000001
43
0.0000000001
44
0.0000000001
40
0
40
0
40
0
40
0
40
1
40
1
40
1
40
1
41
1
41
1
41
1
41
1
10
218.23142940992412
20
47.491602658494273
30
0
10
217.02884151281341
20
47.580595880698354
30
0
10
216.69801093990716
20
47.685786587237629
30
0
10
216.08831058030884
20
48.173037939318277
30
0
0
SPLINE
5
299
100
AcDbEntity
8
INTERIOR_PROFILES
100
AcDbSpline
70
4
71
3
72
8
73
4
74
0
42
0.000000001
43
0.0000000001
44
0.0000000001
40
0
40
0
40
0
40
0
40
1
40
1
40
1
40
1
41
1
41
1
41
1
41
1
10
221.05614376456936
20
46.47157137054478
30
0
10
220.32427963213988
20
47.125233125597354
30
0
10
219.58764022237375
20
47.391244917205796
30
0
10
218.23142940992412
20
47.491602658494273
30
0
0
SPLINE
5
300
100
AcDbEntity
8
INTERIOR_PROFILES
100
AcDbSpline
70
4
71
3
72
8
73
4
74
0
42
0.000000001
43
0.0000000001
44
0.0000000001
40
0
40
0
40
0
40
0
40
1
40
1
40
1
40
1
41
1
41
1
41
1
41
1
10
222.67721261034472
20
45.275194538855828
30
0
10
222.54345356677265
20
45.275194538855843
30
0
10
221.69248632584527
20
45.903223630728185
30
0
10
221.05614376456936
20
46.47157137054478
30
0
0
SPLINE
5
301
100
AcDbEntity
8
INTERIOR_PROFILES
100
AcDbSpline
70
4
71
3
72
8
73
4
74
0
42
0.000000001
43
0.0000000001
44
0.0000000001
40
0
40
0
40
0
40
0
40
1
40
1
40
1
40
1
41
1
41
1
41
1
41
1
10
223.75234867582867
20
46.19958567493935
30
0
10
223.22534073625735
20
45.69116926813976
30
0
10
222.74152822483592
20
45.275194538855843
30
0
10
222.67721261034472
20
45.275194538855828
30
0
0
SPLINE
5
302
100
AcDbEntity
8
INTERIOR_PROFILES
100
AcDbSpline
70
4
71
3
72
8
73
4
74
0
42
0.000000001
43
0.0000000001
44
0.0000000001
40
0
40
0
40
0
40
0
40
1
40
1
40
1
40
1
41
1
41
1
41
1
41
1
10
225.18290639006062
20
47.487077362118882
30
0
10
224.92311207364213
20
47.287374622923394
30
0
10
224.27935982028416
20
46.708002081738947
30
0
10
223.75234867582867
20
46.19958567493935
30
0
0
SPLINE
5
303
100
AcDbEntity
8
INTERIOR_PROFILES
100
AcDbSpline
70
4
71
3
72
8
73
4
74
0
42
0.000000001
43
0.0000000001
44
0.0000000001
40
0
40
0
40
0
40
0
40
1
40
1
40
1
40
1
41
1
41
1
41
1
41
1
10
225.65526785052643
20
48.148161628790035
30
0
10
225.65526785052643
20
47.928639886205374
30
0
10
225.53088629788522
20
47.754563400421844
30
0
10
225.18290639006062
20
47.487077362118882
30
0
0
SPLINE
5
304
100
AcDbEntity
8
INTERIOR_PROFILES
100
AcDbSpline
70
4
71
3
72
8
73
4
74
0
42
0.000000001
43
0.0000000001
44
0.0000000001
40
0
40
0
40
0
40
0
40
1
40
1
40
1
40
1
41
1
41
1
41
1
41
1
10
224.89712687320889
20
51.523834022024566
30
0
10
225.00727874036369
20
51.413682154869775
30
0
10
225.65526785052643
20
48.528465997834438
30
0
10
225.65526785052643
20
48.148161628790035
30
0
0
SPLINE
5
305
100
AcDbEntity
8
INTERIOR_PROFILES
100
AcDbSpline
70
4
71
3
72
8
73
4
74
0
42
0.000000001
43
0.0000000001
44
0.0000000001
40
0
40
0
40
0
40
0
40
1
40
1
40
1
40
1
41
1
41
1
41
1
41
1
10
223.59728356263645
20
50.385965554803988
30
0
10
224.26661079126052
20
51.057375958105126
30
0
10
224.85154060150654
20
51.569420293726921
30
0
10
224.89712687320889
20
51.523834022024566
30
0
0
SPLINE
5
306
100
AcDbEntity
8
INTERIOR_PROFILES
100
AcDbSpline
70
4
71
3
72
8
73
4
74
0
42
0.000000001
43
0.0000000001
44
0.0000000001
40
0
40
0
40
0
40
0
40
1
40
1
40
1
40
1
41
1
41
1
41
1
41
1
10
222.24698896626967
20
49.165218784277521
30
0
10
222.32031991978641
20
49.165218784277513
30
0
10
222.92795633401238
20
49.714555151502822
30
0
10
223.59728356263645
20
50.385965554803988
30
0
0
SPLINE
5
307
100
AcDbEntity
8
INTERIOR_PROFILES
100
AcDbSpline
70
4
71
3
72
8
73
4
74
0
42
0.000000001
43
0.0000000001
44
0.0000000001
40
0
40
0
40
0
40
0
40
1
40
1
40
1
40
1
41
1
41
1
41
1
41
1
10
222.04125463516306
20
49.393323206531662
30
0
10
222.08107852522028
20
49.26787122259487
30
0
10
222.17365160298473
20
49.165218784277521
30
0
10
222.24698896626967
20
49.165218784277521
30
0
0
ARC
5
308
100
AcDbEntity
8
INTERIOR_PROFILES
100
AcDbCircle
10
-402.76040337221269
20
61.792672545870417
30
0
40
2.8299999999999499
210
0
220
0
230
-1
100
AcDbArc
50
172.54274395871403
51
352.54274396214299
0
ARC
5
309
100
AcDbEntity
8
INTERIOR_PROFILES
100
AcDbCircle
10
-373.5000001086849
20
57.962672434156062
30
0
40
32.340000000000011
210
0
220
0
230
-1
100
AcDbArc
50
97.45725568540341
51
172.54274388743204
0
ARC
5
310
100
AcDbEntity
8
INTERIOR_PROFILES
100
AcDbCircle
10
-377.33000000000004
20
87.223075726532713
30
0
40
2.8300000000000125
210
-0
220
0
230
-1
100
AcDbArc
50
-82.542744328455839
51
97.45725566007107
0
ARC
5
311
100
AcDbEntity
8
INTERIOR_PROFILES
100
AcDbCircle
10
373.5000001086849
20
57.962672434156062
30
0
40
26.680000000000046
210
0
220
-0
230
1
100
AcDbArc
50
7.4572561280537197
51
82.54274431043946
0
LWPOLYLINE
5
312
100
AcDbEntity
8
INTERIOR_PROFILES
100
AcDbPolyline
90
4
70
1
43
0.0
10
387.61115090997038
20
37.714763330657462
42
1.0000003451477533
10
384.36353032187782
20
42.374737634861916
42
-0.31408393166141552
10
362.63649559645154
20
42.374719723163885
42
1.0000060280213567
10
359.38885008828879
20
37.714762786441035
42
0.31408428762996049
0
LWPOLYLINE
5
313
100
AcDbEntity
8
INTERIOR_PROFILES
100
AcDbPolyline
90
4
70
1
43
0.0
10
346.84517741993852
20
36.311898142424795
42
-0.35496071331133267
10
346.84516667415261
20
79.613433496556453
42
1.0000030091445171
10
342.45186652221611
20
83.181978546672099
42
0.35496085693222262
10
342.45186686134326
20
32.743365904131359
42
0.9999999028563189
0
ARC
5
314
100
AcDbEntity
8
INTERIOR_PROFILES
100
AcDbCircle
10
-373.5000001086849
20
57.962672434156062
30
0
40
32.339999999999989
210
0
220
0
230
-1
100
AcDbArc
50
7.4572561200373988
51
82.542744312251202
0
ARC
5
315
100
AcDbEntity
8
INTERIOR_PROFILES
100
AcDbCircle
10
-344.23959684515688
20
61.792672545868598
30
0
40
2.8300000000000285
210
0
220
0
230
-1
100
AcDbArc
50
-172.54274396215996
51
7.4572561266804511
0
ARC
5
316
100
AcDbEntity
8
INTERIOR_PROFILES
100
AcDbCircle
10
373.5000001086849
20
57.962672434156062
30
0
40
26.680000000000028
210
0
220
0
230
1
100
AcDbArc
50
97.457255696477816
51
172.54274387194843
0
ARC
5
317
100
AcDbEntity
8
INTERIOR_PROFILES
100
AcDbCircle
10
-369.67000021736976
20
87.223075726532713
30
0
40
2.8299999999999965
210
0
220
0
230
-1
100
AcDbArc
50
82.542744313126931
51
262.54274439366861
0
ARC
5
318
100
AcDbEntity
8
INTERIOR_PROFILES
100
AcDbCircle
10
373.5000001086849
20
57.962672434156062
30
0
40
19.000000000000007
210
0
220
-0
230
1
100
AcDbArc
50
55.126723664133465
51
124.87337640231401
0
ARC
5
319
100
AcDbEntity
8
INTERIOR_PROFILES
100
AcDbCircle
10
-385.98734142011182
20
75.880593825096852
30
0
40
2.839999999999991
210
0
220
0
230
-1
100
AcDbArc
50
124.87337391538516
51
304.87404579765808
0
ARC
5
320
100
AcDbEntity
8
INTERIOR_PROFILES
100
AcDbCircle
10
-373.5000001086849
20
57.962672434156062
30
0
40
24.680000000000007
210
0
220
0
230
-1
100
AcDbArc
50
55.126623912576378
51
124.87337610885361
0
ARC
5
321
100
AcDbEntity
8
INTERIOR_PROFILES
100
AcDbCircle
10
-361.01265879725736
20
75.880593825096327
30
0
40
2.8399999999999901
210
0
220
0
230
-1
100
AcDbArc
50
-124.87337633904701
51
55.126626270860896
0
ARC
5
322
100
AcDbEntity
8
INTERIOR_PROFILES
100
AcDbCircle
10
373.5000001086849
20
57.962672434156062
30
0
40
26.680000000000032
210
0
220
0
230
1
100
AcDbArc
50
187.45725612807939
51
262.54275007440441
0
ARC
5
323
100
AcDbEntity
8
INTERIOR_PROFILES
100
AcDbCircle
10
-344.23959684515694
20
54.132672322442481
30
0
40
2.8299999999999863
210
-0
220
0
230
-1
100
AcDbArc
50
-7.4572540250548585
51
172.5427439624014
0
ARC
5
324
100
AcDbEntity
8
INTERIOR_PROFILES
100
AcDbCircle
10
-373.5000001086849
20
57.962672434156062
30
0
40
32.340000000000003
210
-0
220
0
230
-1
100
AcDbArc
50
277.45725611007003
51
352.54274406386924
0
ARC
5
325
100
AcDbEntity
8
INTERIOR_PROFILES
100
AcDbCircle
10
-369.66999999999996
20
28.702269170231691
30
0
40
2.8300000000016419
210
0
220
0
230
-1
100
AcDbArc
50
97.45731445005859
51
277.45725607459769
0
LWPOLYLINE
5
326
100
AcDbEntity
8
INTERIOR_PROFILES
100
AcDbPolyline
90
4
70
1
43
0.0
10
353.25208997172672
20
43.851523115758269
42
1.0000008097176902
10
357.91206483410065
20
47.099142902950568
42
-0.31408474717064772
10
357.91208012832698
20
68.826223911065611
42
0.99999529010666344
10
353.25209260304791
20
72.073825528202605
42
0.31408430920073255
0
LWPOLYLINE
5
327
100
AcDbEntity
8
INTERIOR_PROFILES
100
AcDbPolyline
90
4
70
1
43
0.0
10
393.74790923709395
20
43.851521668619995
42
0.31408432453420732
10
393.74790783537009
20
72.073825211007744
42
0.99999631117175558
10
389.08792318392284
20
68.826219470021599
42
-0.31408466847451305
10
389.08793540076147
20
47.099142928035747
42
1.0000005045535332
0
ARC
5
328
100
AcDbEntity
8
INTERIOR_PROFILES
100
AcDbCircle
10
373.5000001086849
20
57.962672434156062
30
0
40
34.339999999999982
210
0
220
0
230
1
100
AcDbArc
50
-39.085740821787049
51
39.085740753282252
0
ARC
5
329
100
AcDbEntity
8
INTERIOR_PROFILES
100
AcDbCircle
10
-402.35147825006146
20
34.527632236672538
30
0
40
2.8300000000000254
210
0
220
0
230
-1
100
AcDbArc
50
-140.91425903075017
51
39.085739922238901
0
ARC
5
330
100
AcDbEntity
8
INTERIOR_PROFILES
100
AcDbCircle
10
-373.5000001086849
20
57.962672434156062
30
0
40
40.000000000000007
210
0
220
0
230
-1
100
AcDbArc
50
140.91425925024791
51
219.08574076857701
0
ARC
5
331
100
AcDbEntity
8
INTERIOR_PROFILES
100
AcDbCircle
10
-402.3514782500597
20
81.397712631641895
30
0
40
2.8300000000000303
210
-0
220
0
230
-1
100
AcDbArc
50
-39.085740753554028
51
140.91425929688552
0
ARC
5
332
100
AcDbEntity
8
INTERIOR_PROFILES
100
AcDbCircle
10
-396.93504030617169
20
86.814150575530036
30
0
40
2.8299999999999832
210
0
220
0
230
-1
100
AcDbArc
50
129.08574007779526
51
309.08574081547602
0
ARC
5
333
100
AcDbEntity
8
INTERIOR_PROFILES
100
AcDbCircle
10
-373.5000001086849
20
57.962672434156062
30
0
40
39.999999999999986
210
0
220
0
230
-1
100
AcDbArc
50
50.914267685149127
51
129.08574070551259
0
ARC
5
334
100
AcDbEntity
8
INTERIOR_PROFILES
100
AcDbCircle
10
-350.06495991119914
20
86.814150575530817
30
0
40
2.8299999999999947
210
0
220
0
230
-1
100
AcDbArc
50
-129.08574075576249
51
50.914378518103689
0
ARC
5
335
100
AcDbEntity
8
INTERIOR_PROFILES
100
AcDbCircle
10
373.5000001086849
20
57.962672434156062
30
0
40
34.340000000000039
210
0
220
-0
230
1
100
AcDbArc
50
50.91425925181872
51
129.0857407531002
0
LWPOLYLINE
5
336
100
AcDbEntity
8
INTERIOR_PROFILES
100
AcDbPolyline
90
4
70
1
43
0.0
10
399.95433962259534
20
54.499968161082755
42
-0.33987054124667748
10
376.96268186976886
20
31.508329973478027
42
0.9999959112209601
10
377.69729561818656
20
25.896205363305892
42
0.3398701204693958
10
405.56646430055508
20
53.76535493048992
42
1.0000038404980194
0
LWPOLYLINE
5
337
100
AcDbEntity
8
INTERIOR_PROFILES
100
AcDbPolyline
90
4
70
1
43
0.0
10
304.08375128583839
20
47.093141703890197
42
0.99999486589274778
10
308.72609037464349
20
43.855196709961618
42
0.31429524864123021
10
308.72607970836685
20
72.07016322720925
42
0.99999659851585576
10
304.08376756228654
20
68.83217960525576
42
-0.3142954708120963
0
ARC
5
338
100
AcDbEntity
8
INTERIOR_PROFILES
100
AcDbCircle
10
288.49999999999955
20
57.962672322442266
30
0
40
34.32
210
0
220
0
230
1
100
AcDbArc
50
140.93139208594144
51
219.06864143595095
0
ARC
5
339
100
AcDbEntity
8
INTERIOR_PROFILES
100
AcDbCircle
10
-259.64929337661067
20
81.382798866318083
30
0
40
2.8399999999999799
210
0
220
0
230
-1
100
AcDbArc
50
39.068642191652316
51
219.06905477169997
0
ARC
5
340
100
AcDbEntity
8
INTERIOR_PROFILES
100
AcDbCircle
10
-288.4999999999996
20
57.962672322442295
30
0
40
40
210
-0
220
0
230
-1
100
AcDbArc
50
-39.068642080942254
51
39.068642074660204
0
ARC
5
341
100
AcDbEntity
8
INTERIOR_PROFILES
100
AcDbCircle
10
-259.64929337661101
20
34.542545778566385
30
0
40
2.8399999999999386
210
0
220
0
230
-1
100
AcDbArc
50
140.93135032383881
51
320.93135771987465
0
ARC
5
342
100
AcDbEntity
8
INTERIOR_PROFILES
100
AcDbCircle
10
-373.5000001086849
20
57.962672434156062
30
0
40
40
210
0
220
-0
230
-1
100
AcDbArc
50
230.91425924266593
51
309.08574075543015
0
ARC
5
343
100
AcDbEntity
8
INTERIOR_PROFILES
100
AcDbCircle
10
-396.93504030617078
20
29.111194292781299
30
0
40
2.8300000000000152
210
0
220
0
230
-1
100
AcDbArc
50
50.913299787936921
51
230.91425918972189
0
ARC
5
344
100
AcDbEntity
8
INTERIOR_PROFILES
100
AcDbCircle
10
373.5000001086849
20
57.962672434156062
30
0
40
34.340000000000003
210
0
220
0
230
1
100
AcDbArc
50
230.91425926862479
51
309.08566168317225
0
ARC
5
345
100
AcDbEntity
8
INTERIOR_PROFILES
100
AcDbCircle
10
-350.06495991119903
20
29.111194292781288
30
0
40
2.8299999999999361
210
-0
220
0
230
-1
100
AcDbArc
50
-50.914259216631919
51
129.08574101938063
0
LWPOLYLINE
5
346
100
AcDbEntity
8
INTERIOR_PROFILES
100
AcDbPolyline
90
4
70
1
43
0.0
10
291.96244190629477
20
31.528469174865158
42
0.99999755625798081
10
292.69754437926008
20
25.916408559186848
42
0.33982079862030251
10
320.54626369200463
20
53.765127399218393
42
1.0000007819918926
10
314.93420084762397
20
54.500212857076853
42
-0.33982088625058371
0
ARC
5
347
100
AcDbEntity
8
INTERIOR_PROFILES
100
AcDbCircle
10
-259.25976744278472
20
54.13267232244344
30
0
40
2.8299999999999894
210
-0
220
0
230
-1
100
AcDbArc
50
-7.4623420863796337
51
172.53765856085226
0
ARC
5
348
100
AcDbEntity
8
INTERIOR_PROFILES
100
AcDbCircle
10
-288.49999999999955
20
57.962672322442266
30
0
40
32.320000000000007
210
-0
220
0
230
-1
100
AcDbArc
50
277.46238033328302
51
352.53765784276413
0
ARC
5
349
100
AcDbEntity
8
INTERIOR_PROFILES
100
AcDbCircle
10
-284.66999999999985
20
28.722439765227517
30
0
40
2.8300000000000032
210
0
220
0
230
-1
100
AcDbArc
50
97.462342169048
51
277.4627780757055
0
ARC
5
350
100
AcDbEntity
8
INTERIOR_PROFILES
100
AcDbCircle
10
288.49999999999955
20
57.962672322442273
30
0
40
26.659999999999961
210
0
220
0
230
1
100
AcDbArc
50
187.46234224098362
51
262.53765783649459
0
LINE
5
351
100
AcDbEntity
8
BEND
100
AcDbLine
10
428.5
20
101.32900848366376
30
-4.9512017414683047e-14
11
-2.1316282072803006e-13
21
101.32900848366376
31
-5.151827782620616e-14
0
LINE
5
352
100
AcDbEntity
8
BEND
100
AcDbLine
10
7.1054273576010019e-14
20
14.596336161221171
30
-4.9512017414682789e-14
11
428.49999999999994
21
14.596336161221179
31
-5.1518277826206198e-14
0
LINE
5
353
100
AcDbEntity
8
BEND_EXTENT
100
AcDbLine
10
-7.1054273576010019e-14
20
102.76534464488499
30
-4.4408920985006262e-14
11
428.50000000000011
21
102.765344644885
31
-4.4408920985006337e-14
0
LINE
5
354
100
AcDbEntity
8
BEND_EXTENT
100
AcDbLine
10
428.5
20
99.892672322442507
30
-5.329070518200759e-14
11
-7.1054273576010019e-14
21
99.892672322442507
31
-5.3290705182007514e-14
0
LINE
5
355
100
AcDbEntity
8
BEND_EXTENT
100
AcDbLine
10
428.49999999999994
20
13.159999999999954
30
-4.4408920985006337e-14
11
0
21
13.159999999999954
31
-4.4408920985006262e-14
0
LINE
5
356
100
AcDbEntity
8
BEND_EXTENT
100
AcDbLine
10
-7.1054273576010019e-14
20
16.032672322442465
30
-5.3290705182007514e-14
11
428.49999999999994
21
16.032672322442465
31
-5.329070518200759e-14
0
ENDSEC
0
SECTION
2
OBJECTS
0
DICTIONARY
5
C
100
AcDbDictionary
3
ACAD_GROUP
350
D
3
ACAD_MLINESTYLE
350
17
0
DICTIONARY
5
D
100
AcDbDictionary
0
DICTIONARY
5
1A
330
C
100
AcDbDictionary
0
DICTIONARY
5
17
100
AcDbDictionary
0
ENDSEC
0
EOF
